<svg width="192" height="228" viewBox="0 0 192 228" fill="none" xmlns="http://www.w3.org/2000/svg">
<path d="M25.7174 148.141C33.0375 125.41 54.1893 110 78.0697 110H113.93C137.811 110 158.963 125.41 166.283 148.141L192 228H0L25.7174 148.141Z" fill="#01A75B"/>
<path d="M22.1759 228L30.5635 187.886C30.9027 186.264 32.4925 185.225 34.1142 185.564C35.7359 185.903 36.7756 187.493 36.4365 189.114L28.3058 228H22.1759Z" fill="#037945"/>
<path d="M153.324 228L144.937 187.886C144.597 186.264 143.007 185.225 141.386 185.564C139.764 185.903 138.724 187.493 139.064 189.114L147.194 228H153.324Z" fill="#037945"/>
<path d="M113.931 110C127.869 110 140.876 115.251 150.747 124.142C145.317 145.781 122.869 162 96 162C69.1313 162 46.682 145.781 41.252 124.142C51.1233 115.251 64.1312 110 78.0693 110H113.931Z" fill="#037945"/>
<ellipse cx="96.5" cy="123" rx="24.5" ry="19" fill="#EE9A6C"/>
<rect x="46" y="12" width="100" height="122" rx="50" fill="#FFA573"/>
<path d="M66.5 26C88.8675 26 107 44.1325 107 66.5V85.5C107 107.107 90.0792 124.76 68.7656 125.936C59.7177 120.047 52.693 111.313 48.9648 100.999C42.9059 100.98 38 96.0634 38 90V84C38 78.9652 41.3834 74.7231 46 73.417V62C46 48.0598 51.7067 35.4538 60.9092 26.3857C62.7368 26.1334 64.603 26 66.5 26Z" fill="#FFC482"/>
<circle cx="139" cy="87" r="17" fill="#FFA573"/>
<rect x="38" y="73" width="22" height="28" rx="11" fill="#FFC482"/>
<rect x="62" y="75" width="20" height="20" rx="10" fill="#2C2C2C"/>
<rect x="109" y="75" width="20" height="20" rx="10" fill="#2C2C2C"/>
<path d="M46 103.06H146C146 130.641 123.614 153 96 153C68.3858 153 46 130.641 46 103.06Z" fill="#8A2E15"/>
<path d="M46 97.7232V103.06H95.5027C98.5388 103.06 101 100.601 101 97.5688C101 94.7131 98.8084 92.3341 95.9592 92.097L95.0625 92.0223C94.5779 91.982 94.0904 91.9963 93.609 92.065L91.4076 92.3791C88.2008 92.8367 85.107 93.8853 82.2837 95.4715L77.6667 98.0655L74.1287 99.6965C71.7014 100.815 69.06 101.395 66.3868 101.395C64.2923 101.395 62.2131 101.039 60.2381 100.343L55.0119 98.5005C54.2024 98.2152 53.4786 97.7293 52.9083 97.0885L51.5855 95.6022C50.3637 94.2292 48.2367 94.1668 46.9362 95.4657C46.3368 96.0644 46 96.8765 46 97.7232Z" fill="#8A2E15"/>
<path d="M146 97.7232V103.06H96.4973C93.4612 103.06 91 100.601 91 97.5688C91 94.7131 93.1916 92.3341 96.0408 92.097L96.9375 92.0223C97.4221 91.982 97.9096 91.9963 98.391 92.065L100.592 92.3791C103.799 92.8367 106.893 93.8853 109.716 95.4715L114.333 98.0655L117.871 99.6965C120.299 100.815 122.94 101.395 125.613 101.395C127.708 101.395 129.787 101.039 131.762 100.343L136.988 98.5005C137.798 98.2152 138.521 97.7293 139.092 97.0885L140.414 95.6022C141.636 94.2292 143.763 94.1668 145.064 95.4657C145.663 96.0644 146 96.8765 146 97.7232Z" fill="#8A2E15"/>
<path d="M46.5786 77.5155H39.7586L37.8276 70.7329L35.8966 63.4658L34.4483 55.2298L33.6725 49.2612C33.2272 45.8347 33.3445 42.3585 34.0198 38.9698L34.077 38.683C34.6433 35.8413 35.6219 33.0975 36.9817 30.5388C38.1843 28.2761 39.6742 26.1782 41.4145 24.2973L42.4469 23.1816C44.1867 21.3013 46.1764 19.6687 48.3602 18.3294L50.8642 16.7937C52.7698 15.6251 54.9122 14.8968 57.1352 14.6619L58.5055 14.5172C61.3524 14.2165 63.9836 12.8613 65.8817 10.7184C66.4871 10.0349 67.1721 9.42614 67.922 8.90514L70.2619 7.27946C72.1289 5.98233 74.136 4.8607 76.2176 3.94678C79.2351 2.62193 82.4488 1.7087 85.7133 1.25684L90.6228 0.577252C93.3936 0.193724 96.1996 0.134424 98.984 0.400553L99.5008 0.449948C103.1 0.793982 106.628 1.67837 109.964 3.07334L112.474 4.12314C115.158 5.24525 117.682 6.71659 119.98 8.49905L123.271 11.0511C125.802 13.014 128.815 14.26 131.993 14.6587C133.893 14.8971 135.743 15.4396 137.471 16.2654L139.42 17.1968C143.104 18.9574 146.407 21.4239 149.141 24.4566L150.271 25.7099C152.853 28.5739 154.928 31.857 156.407 35.4183L156.47 35.5711C158.14 39.5938 159 43.9067 159 48.2625C159 50.9594 158.67 53.6462 158.018 56.2631L152.724 77.5155L152.002 77.6363C150.563 77.8769 149.094 77.8661 147.658 77.6042L146.622 77.4151C145.241 77.163 143.944 76.5708 142.849 75.6918C140.852 74.0882 139.69 71.6651 139.69 69.1036V67.9553C139.69 66.2772 139.297 64.6154 138.549 63.1133C138.027 62.0663 137.338 61.1055 136.512 60.2769L132.931 56.6832L127.138 51.354L123.605 47.218C122.321 45.7143 120.108 45.425 118.48 46.548C115.264 48.7671 111.696 50.4275 107.926 51.4591L107.416 51.5987C104.484 52.4013 101.462 52.8292 98.4217 52.8722L71.8159 53.2482C69.763 53.2772 67.722 53.5662 65.7418 54.1082L65.3377 54.2188C64.0583 54.569 62.8166 55.045 61.6309 55.6399L59.4094 56.7547C57.6072 57.6589 56.0848 59.0362 55.005 60.739C53.8755 62.5201 53.2759 64.5857 53.2759 66.6947V70.8042C53.2759 72.3264 52.7574 73.8056 51.8086 74.9959C51.5007 75.3821 51.1505 75.7337 50.7654 76.0428C49.5781 76.996 48.1012 77.5155 46.5786 77.5155Z" fill="#8A2E15"/>
<path d="M90.8352 0.326098C93.5226 -0.0415373 96.2443 -0.0986501 98.9449 0.156409L99.8318 0.240311C103.324 0.570261 106.747 1.41899 109.986 2.75736L112.705 3.88108C115.41 4.99863 117.954 6.46454 120.272 8.24114L123.583 10.778C124.538 11.5101 125.561 12.1419 126.635 12.6672C126.875 14.933 127 17.2333 127 19.5622C127 28.7862 125.066 37.562 121.581 45.5142C120.625 45.3633 119.613 45.5648 118.761 46.1459C115.519 48.3563 111.922 50.0119 108.127 51.0386L107.439 51.2252C104.594 51.9948 101.662 52.4048 98.713 52.446L71.7159 52.8231C69.6476 52.852 67.5912 53.1393 65.5956 53.6791L65.1831 53.7913C63.896 54.1394 62.6465 54.6127 61.4533 55.2044L59.2015 56.3215C57.3912 57.2193 55.8608 58.5883 54.7741 60.2819C53.634 62.0589 53.0281 64.1213 53.028 66.2276V70.3086C53.028 71.8279 52.5068 73.3022 51.55 74.4886C51.2388 74.8745 50.8849 75.2254 50.4959 75.5341C49.2997 76.4831 47.8132 77 46.2813 77H39.4016L37.455 70.2426L35.5083 63.0026L34.0484 54.7972L33.2671 48.8533C32.8179 45.4382 32.9358 41.9728 33.6168 38.5956L33.6729 38.3175C34.2446 35.4827 35.2316 32.746 36.6033 30.1951C37.8145 27.9427 39.3146 25.8551 41.0659 23.9845L42.1058 22.8749C43.8636 20.9974 45.8725 19.3673 48.0768 18.0312L50.5957 16.505C52.5175 15.3402 54.6766 14.614 56.9165 14.3801L58.31 14.2349C61.1734 13.936 63.8214 12.5871 65.7344 10.4528C66.3455 9.7709 67.0369 9.16391 67.7931 8.64462L70.1903 6.99864C72.0463 5.72427 74.022 4.63048 76.0901 3.73307L76.3201 3.63315C79.2709 2.35279 82.3855 1.48191 85.5761 1.04539L90.8352 0.326098Z" fill="#9E3A20"/>
</svg>
