<svg width="192" height="223" viewBox="0 0 192 223" fill="none" xmlns="http://www.w3.org/2000/svg">
<path d="M25.7174 143.141C33.0375 120.41 54.1893 105 78.0697 105H113.93C137.811 105 158.963 120.41 166.283 143.141L192 223H0L25.7174 143.141Z" fill="#45A2FF"/>
<path d="M54.423 120.45C49.7711 110.175 54.3291 98.0751 64.6037 93.4232C74.8782 88.7712 86.9784 93.3293 91.6304 103.604L95.972 113.193C100.624 123.467 96.0658 135.568 85.7913 140.22C75.5168 144.872 63.4165 140.313 58.7646 130.039L54.423 120.45Z" fill="#FDFDFB"/>
<path d="M132.67 126.453C138.846 117.015 136.201 104.358 126.764 98.1824C117.327 92.0066 104.67 94.6506 98.4937 104.088L93.1823 112.205C87.0065 121.642 89.6505 134.299 99.088 140.475C108.525 146.651 121.182 144.007 127.358 134.569L132.67 126.453Z" fill="#FDFDFB"/>
<path d="M22.1759 223L30.5635 182.886C30.9027 181.264 32.4925 180.224 34.1143 180.563C35.7359 180.903 36.7756 182.492 36.4365 184.114L28.3058 223H22.1759Z" fill="#4182F8"/>
<path d="M153.324 223L144.937 182.886C144.597 181.264 143.007 180.224 141.386 180.563C139.764 180.903 138.724 182.492 139.063 184.114L147.194 223H153.324Z" fill="#4182F8"/>
<path d="M97 173V151.889L90.9844 142.635C90.0816 141.246 90.4762 139.387 91.8652 138.484C93.2544 137.582 95.1127 137.976 96.0156 139.365L103 150.11V173C103 174.657 101.657 176 100 176C98.3431 176 97 174.657 97 173Z" fill="#4182F8"/>
<path d="M93 155.5V155C93 152.791 91.2091 151 89 151C86.7909 151 85 152.791 85 155V155.5C85 157.709 86.7909 159.5 89 159.5C91.2091 159.5 93 157.709 93 155.5Z" fill="#4182F8"/>
<path d="M93 167.5V167C93 164.791 91.2091 163 89 163C86.7909 163 85 164.791 85 167V167.5C85 169.709 86.7909 171.5 89 171.5C91.2091 171.5 93 169.709 93 167.5Z" fill="#4182F8"/>
<path d="M121 118C121 128.493 110.031 137 96.5 137C82.969 137 72 128.493 72 118C72 107.507 82.969 99 96.5 99C110.031 99 121 107.507 121 118Z" fill="#EE9A6C"/>
<path d="M46 57C46 29.3858 68.3858 7 96 7C123.614 7 146 29.3858 146 57V79C146 106.614 123.614 129 96 129C68.3858 129 46 106.614 46 79V57Z" fill="#FFA573"/>
<path d="M66.5 21C88.8675 21 107 39.1325 107 61.5V80.5C107 102.107 90.0792 119.76 68.7656 120.936C59.7177 115.047 52.693 106.313 48.9648 95.999C42.9059 95.9801 38 91.0634 38 85V79C38 73.9652 41.3834 69.7231 46 68.417V57C46 43.0597 51.7067 30.4538 60.9092 21.3857C62.7368 21.1334 64.603 21 66.5 21Z" fill="#FFC482"/>
<path d="M96.5 0C111.084 0 124.463 5.1612 134.91 13.7559C139.381 9.5666 145.39 7 152 7C165.807 7 177 18.1929 177 32C177 44.1405 168.346 54.2584 156.87 56.5244C156.955 57.8386 157 59.1642 157 60.5C157 66.2546 156.629 71.8215 155.77 77.0947C152.642 74.8411 149.381 72.7613 146 70.8691V66.7744C146 57.8542 139.794 51.8125 130.971 50.5C121.533 49.0963 108.766 47.6621 96 47.6621C83.2335 47.6621 70.4666 49.0963 61.0293 50.5C52.2062 51.8125 46 57.8542 46 66.7744V71.4365C42.975 73.175 40.0481 75.0648 37.2295 77.0957C36.3704 71.8222 36 66.2549 36 60.5C36 59.0046 36.0555 57.5219 36.1621 56.0537C25.6789 53.0794 18 43.4363 18 32C18 18.1929 29.1929 7 43 7C49.1527 7 54.7843 9.22498 59.1396 12.9111C69.4265 4.82403 82.3998 0 96.5 0Z" fill="#D00A42"/>
<path d="M96.5 0C98.2086 0 99.9005 0.0730162 101.573 0.211914C101.836 0.233891 102.098 0.257857 102.359 0.283203C102.513 0.297923 102.666 0.312266 102.818 0.328125C133.203 3.50724 156.905 29.3603 156.998 60.8145C156.985 66.4574 156.613 71.9176 155.77 77.0947C152.642 74.8411 149.381 72.7613 146 70.8691V66.7744C146 57.8542 139.794 51.8125 130.971 50.5C121.533 49.0963 108.766 47.6621 96 47.6621C83.2335 47.6621 70.4666 49.0963 61.0293 50.5C52.2062 51.8125 46 57.8542 46 66.7744V71.4365C42.975 73.175 40.0481 75.0648 37.2295 77.0957C36.386 71.9183 36.0143 66.4577 36.001 60.8145C36.0932 29.5976 59.4412 3.898 89.4951 0.404297C89.993 0.346881 90.4926 0.294273 90.9941 0.249023C91.1976 0.230517 91.4014 0.213736 91.6055 0.197266C91.8229 0.179854 92.0407 0.163543 92.2588 0.148438C92.4298 0.136495 92.601 0.124764 92.7725 0.114258C94.0054 0.0393089 95.2482 0 96.5 0Z" fill="#FB0047"/>
<path d="M156 82C156 91.3888 148.389 99 139 99C129.611 99 122 91.3888 122 82C122 72.6112 129.611 65 139 65C148.389 65 156 72.6112 156 82Z" fill="#FFA573"/>
<path d="M38 79C38 72.9249 42.9249 68 49 68C55.0751 68 60 72.9249 60 79V85C60 91.0751 55.0751 96 49 96C42.9249 96 38 91.0751 38 85V79Z" fill="#FFC482"/>
<path d="M62 80C62 74.4771 66.4771 70 72 70C77.5229 70 82 74.4771 82 80C82 85.5229 77.5229 90 72 90C66.4771 90 62 85.5229 62 80Z" fill="#2C2C2C"/>
<path d="M109 80C109 74.4771 113.477 70 119 70C124.523 70 129 74.4771 129 80C129 85.5229 124.523 90 119 90C113.477 90 109 85.5229 109 80Z" fill="#2C2C2C"/>
</svg>
