<svg width="192" height="226" viewBox="0 0 192 226" fill="none" xmlns="http://www.w3.org/2000/svg">
<path d="M25.7174 146.141C33.0375 123.41 54.1893 108 78.0697 108H113.93C137.811 108 158.963 123.41 166.283 146.141L192 226H0L25.7174 146.141Z" fill="#A90254"/>
<path d="M22.1759 226L30.5635 185.886C30.9027 184.264 32.4925 183.225 34.1142 183.564C35.7359 183.903 36.7756 185.493 36.4365 187.114L28.3058 226H22.1759Z" fill="#800043"/>
<path d="M153.324 226L144.937 185.886C144.597 184.264 143.007 183.225 141.386 183.564C139.764 183.903 138.724 185.493 139.064 187.114L147.194 226H153.324Z" fill="#800043"/>
<ellipse cx="97" cy="123" rx="42" ry="30" fill="#800043"/>
<ellipse cx="96.5" cy="121" rx="24.5" ry="19" fill="#EE9A6C"/>
<rect x="46" y="10" width="100" height="122" rx="50" fill="#FFA573"/>
<path d="M66.5 24C88.8675 24 107 42.1325 107 64.5V83.5C107 105.107 90.0792 122.76 68.7656 123.936C59.7177 118.047 52.693 109.313 48.9648 98.999C42.9059 98.9801 38 94.0634 38 88V82C38 76.9652 41.3834 72.7231 46 71.417V60C46 46.0598 51.7067 33.4538 60.9092 24.3857C62.7368 24.1334 64.603 24 66.5 24Z" fill="#FFC482"/>
<circle cx="139" cy="85" r="17" fill="#FFA573"/>
<rect x="38" y="71" width="22" height="28" rx="11" fill="#FFC482"/>
<rect x="62" y="73" width="20" height="20" rx="10" fill="#34104D"/>
<rect x="109" y="73" width="20" height="20" rx="10" fill="#34104D"/>
<path d="M40.8049 65.2642L41.7895 60.9789L44.8912 52.6707C45.2066 51.8257 45.675 51.046 46.2727 50.3705L46.8031 49.7712C48.7574 47.5628 51.9759 46.9928 54.5698 48.3957C56.6183 49.5037 57.8947 51.6453 57.8947 53.9742V60.8198C57.8947 61.7234 57.826 62.6257 57.6892 63.5189L57.032 67.81C56.8129 69.2404 56.3952 70.6333 55.791 71.9483L54.2642 75.2711C53.5329 76.8626 52.2036 78.1014 50.5646 78.7188C49.1327 79.2581 47.5587 79.2874 46.1078 78.8016L45.5485 78.6143C43.8809 78.056 42.412 76.9961 41.4858 75.5012C40.7053 74.2415 40 72.9337 40 72.3628C40 69.9738 40.27 67.5925 40.8049 65.2642Z" fill="#34104D"/>
<path d="M152.392 63.7115L151.408 59.4261L148.306 51.118C147.991 50.273 147.522 49.4933 146.925 48.8178L146.394 48.2185C144.44 46.0101 141.221 45.4401 138.628 46.843C136.579 47.951 135.303 50.0925 135.303 52.4215V59.2671C135.303 60.1707 135.371 61.0729 135.508 61.9661L136.165 66.2572C136.384 67.6877 136.802 69.0806 137.406 70.3955L138.933 73.7184C139.664 75.3098 140.994 76.5487 142.633 77.1661C144.065 77.7054 145.639 77.7346 147.09 77.2489L147.649 77.0616C149.317 76.5032 150.785 75.4434 151.712 73.9485C152.492 72.6888 153.197 71.381 153.197 70.81C153.197 68.4211 152.927 66.0398 152.392 63.7115Z" fill="#34104D"/>
<path d="M151.547 48.0332L42.5634 49.9933C44.999 21.979 68.5117 0 97.1579 0C125.132 0 148.211 20.9605 151.547 48.0332Z" fill="#2E5BF6"/>
<path fill-rule="evenodd" clip-rule="evenodd" d="M96.5987 58.158C116.739 58.158 135.564 62.3311 151.583 69.5737C152.939 70.1869 154.496 69.1959 154.476 67.7075L154.214 47.7047C154.204 46.9193 153.738 46.2124 153.015 45.905C137.375 39.2556 115.679 33.5527 96.5987 33.5527V58.158Z" fill="#336BFB"/>
<path fill-rule="evenodd" clip-rule="evenodd" d="M96.92 58.158C76.7793 58.158 57.9548 62.3311 41.9359 69.5737C40.5796 70.1869 39.023 69.1959 39.0425 67.7075L39.3044 47.7047C39.3147 46.9193 39.7809 46.2124 40.5038 45.905C56.1442 39.2556 77.8394 33.5527 96.92 33.5527V58.158Z" fill="#336BFB"/>
<path d="M43 51C44.6569 51 46 52.3431 46 54V67.8291C44.6266 68.3895 43.2708 68.9695 41.9355 69.5732C41.2678 69.8751 40.5528 69.787 40 69.4434V54C40 52.3431 41.3431 51 43 51ZM150 51C151.657 51 153 52.3431 153 54V69.6758C152.553 69.8054 152.056 69.7872 151.583 69.5732C150.08 68.8935 148.552 68.2409 147 67.6162V54C147 52.3431 148.343 51 150 51ZM135 45C136.657 45 138 46.3431 138 48V64C138 64.1311 137.99 64.26 137.974 64.3867C136.012 63.768 134.02 63.192 132 62.6602V48C132 46.3431 133.343 45 135 45ZM59 45C60.6569 45 62 46.3431 62 48V62.5352C59.9746 63.0602 57.9767 63.627 56.0098 64.2393C56.0035 64.1603 56 64.0805 56 64V48C56 46.3431 57.3431 45 59 45ZM117 41C118.657 41 120 42.3431 120 44V60C120 60.0284 119.998 60.0567 119.997 60.085C118.019 59.7537 116.019 59.4645 114 59.2168V44C114 42.3431 115.343 41 117 41ZM77 41C78.6569 41 80 42.3431 80 44V59.1572C77.9802 59.398 75.9798 59.6826 74 60.0068V44C74 42.3431 75.3431 41 77 41ZM97 39C98.6569 39 100 40.3431 100 42V58C100 58.067 99.9965 58.1333 99.9922 58.1992C98.9183 58.1741 97.8405 58.1604 96.7588 58.1592C95.8383 58.1602 94.9207 58.1711 94.0059 58.1895C94.002 58.1268 94 58.0636 94 58V42C94 40.3431 95.3431 39 97 39Z" fill="#2E5BF6"/>
</svg>
