<svg width="192" height="227" viewBox="0 0 192 227" fill="none" xmlns="http://www.w3.org/2000/svg">
<rect x="49" y="65" width="95" height="78" rx="6" fill="#FE9C2D"/>
<path d="M25.7174 147.141C33.0375 124.41 54.1893 109 78.0697 109H113.93C137.811 109 158.963 124.41 166.283 147.141L192 227H0L25.7174 147.141Z" fill="#AC0D10"/>
<path d="M22.1759 227L30.5635 186.886C30.9027 185.264 32.4925 184.225 34.1142 184.564C35.7359 184.903 36.7756 186.493 36.4365 188.114L28.3058 227H22.1759Z" fill="#7A080A"/>
<path d="M153.324 227L144.937 186.886C144.597 185.264 143.007 184.225 141.386 184.564C139.764 184.903 138.724 186.493 139.064 188.114L147.194 227H153.324Z" fill="#7A080A"/>
<ellipse cx="92" cy="62.5" rx="59" ry="62.5" fill="#FFC15A"/>
<ellipse cx="116" cy="54.5" rx="43" ry="45.5" fill="#FFC15A"/>
<path d="M159.116 55.9533L159 55C152.771 49.9768 143.5 54.4104 143.5 62.4123V99V139.938C143.5 140.311 143.546 140.683 143.636 141.045C144.144 143.075 145.968 144.5 148.062 144.5H148.382C149.118 144.5 149.845 144.337 150.51 144.021L154.485 142.139C157.465 140.727 160.129 138.73 162.319 136.266L162.517 136.044C165.457 132.736 167.504 128.733 168.464 124.413L169.108 121.512C169.701 118.845 170 116.122 170 113.39V111.228C170 106.429 169.395 101.648 168.2 96.9995L165.5 86.5C162.505 76.5183 160.37 66.2988 159.116 55.9533Z" fill="#FDAF40"/>
<path d="M33.8844 54.4533L34 53.5C40.2288 48.4768 49.5 52.9104 49.5 60.9123V97.5V138.438C49.5 138.811 49.4543 139.183 49.3638 139.545C48.8561 141.575 47.0316 143 44.9384 143H44.618C43.8819 143 43.1549 142.837 42.4896 142.521L38.5147 140.639C35.5355 139.227 32.8712 137.23 30.6811 134.766L30.4832 134.544C27.5431 131.236 25.4961 127.233 24.5361 122.913L23.8916 120.012C23.299 117.345 23 114.622 23 111.89V109.728C23 104.929 23.6048 100.148 24.8001 95.4995L27.5 85C30.4945 75.0183 32.6304 64.7988 33.8844 54.4533Z" fill="#FDAF40"/>
<ellipse cx="96" cy="128.5" rx="36" ry="25.5" fill="#7A080A"/>
<ellipse cx="96.5" cy="122" rx="24.5" ry="19" fill="#EE9A6C"/>
<rect x="46" y="11" width="100" height="122" rx="50" fill="#FFA573"/>
<path d="M66.5 25C88.8675 25 107 43.1325 107 65.5V84.5C107 106.107 90.0792 123.76 68.7656 124.936C59.7177 119.047 52.693 110.313 48.9648 99.999C42.9059 99.9801 38 95.0634 38 89V83C38 77.9652 41.3834 73.7231 46 72.417V61C46 47.0598 51.7067 34.4538 60.9092 25.3857C62.7368 25.1334 64.603 25 66.5 25Z" fill="#FFC482"/>
<circle cx="139" cy="86" r="17" fill="#FFA573"/>
<rect x="38" y="72" width="22" height="28" rx="11" fill="#FFC482"/>
<rect x="62" y="74" width="20" height="20" rx="10" fill="#2C2C2C"/>
<rect x="109" y="74" width="20" height="20" rx="10" fill="#2C2C2C"/>
<rect x="72" y="22" width="46" height="37" rx="4" fill="#FFC15A"/>
<path d="M112.97 27.362C112.014 24.7595 113.94 22 116.712 22H130.208C131.885 22 133.384 23.0464 133.963 24.6207L138.395 36.6859C140.78 43.1777 142 50.0394 142 56.9554C142 58.0846 141.085 59 139.955 59H122.045C120.915 59 120 58.0846 120 56.9554C120 50.0394 118.78 43.1777 116.395 36.6859L112.97 27.362Z" fill="#FFC15A"/>
<path d="M77.0303 27.362C77.9863 24.7595 76.0602 22 73.2877 22H59.792C58.1147 22 56.6156 23.0464 56.0373 24.6207L51.6052 36.6859C49.2204 43.1777 48 50.0394 48 56.9554C48 58.0846 48.9154 59 50.0446 59H67.9554C69.0846 59 70 58.0846 70 56.9554C70 50.0394 71.2204 43.1777 73.6052 36.6859L77.0303 27.362Z" fill="#FFC15A"/>
<rect x="38" y="32" width="16" height="31" rx="8" fill="#FFC15A"/>
<path d="M134 38.0335C134 31.9581 140.71 28.2788 145.832 31.5453C147.309 32.4869 148.42 33.9038 148.983 35.5622L155.949 56.1063C158.428 63.4167 152.993 71 145.273 71C139.047 71 134 65.9528 134 59.7267V38.0335Z" fill="#FFC15A"/>
<path d="M71 6.5L111 10.5L133 24H64L71 6.5Z" fill="#FFC15A"/>
<circle cx="96.5" cy="161.5" r="4.5" fill="#E6DDDD"/>
<circle cx="96.5" cy="174.5" r="4.5" fill="#E6DDDD"/>
</svg>
