<svg width="192" height="237" viewBox="0 0 192 237" fill="none" xmlns="http://www.w3.org/2000/svg">
<path d="M25.7174 157.141C33.0375 134.41 54.1893 119 78.0697 119H113.93C137.811 119 158.963 134.41 166.283 157.141L192 237H0L25.7174 157.141Z" fill="#FC2F4D"/>
<path d="M22.1759 237L30.5635 196.886C30.9027 195.264 32.4925 194.224 34.1142 194.563C35.7359 194.903 36.7756 196.492 36.4365 198.114L28.3058 237H22.1759Z" fill="#E53249"/>
<path d="M153.324 237L144.937 196.886C144.597 195.264 143.007 194.224 141.386 194.563C139.764 194.903 138.724 196.492 139.064 198.114L147.194 237H153.324Z" fill="#E53249"/>
<path d="M93.0004 175.643V160.304L87.9486 161.988C86.3769 162.512 84.6786 161.663 84.1547 160.091C83.6309 158.519 84.4804 156.821 86.0521 156.297L95.9408 153L108.84 156.763C110.431 157.227 111.344 158.892 110.88 160.482C110.416 162.073 108.751 162.986 107.161 162.522L99.0004 160.142V175.643C99.0004 177.299 97.6572 178.643 96.0004 178.643C94.3435 178.643 93.0004 177.299 93.0004 175.643Z" fill="#E53249"/>
<path d="M111.659 165.748L91 148.778L134.864 116.626C135.328 116.286 135.982 116.406 136.295 116.889L143.08 127.359C143.651 128.24 143.72 129.355 143.262 130.299L135.753 145.791C133.895 149.624 131.653 153.259 129.061 156.64L123.086 164.434C120.334 168.024 115.154 168.62 111.659 165.748Z" fill="#D9D9D9"/>
<path d="M81.3412 165.748L102 148.778L58.1355 116.626C57.6719 116.286 57.0178 116.406 56.7052 116.889L49.9195 127.359C49.3487 128.24 49.2797 129.355 49.7375 130.299L57.2474 145.791C59.1054 149.624 61.3475 153.259 63.9391 156.64L69.9141 164.434C72.6664 168.024 77.8456 168.62 81.3412 165.748Z" fill="#D9D9D9"/>
<ellipse cx="96" cy="134.5" rx="24" ry="18.5" fill="#F87064"/>
<rect x="46" y="21" width="100" height="122" rx="50" fill="#FD7A66"/>
<path d="M66.5 35C88.8675 35 107 53.1325 107 75.5V94.5C107 116.107 90.0792 133.76 68.7656 134.936C59.7177 129.047 52.693 120.313 48.9648 109.999C42.9059 109.98 38 105.063 38 99V93C38 87.9652 41.3834 83.7231 46 82.417V71C46 57.0597 51.7067 44.4538 60.9092 35.3857C62.7368 35.1334 64.603 35 66.5 35Z" fill="#FD916D"/>
<circle cx="139" cy="96" r="17" fill="#FD7A66"/>
<rect x="38" y="82" width="22" height="28" rx="11" fill="#FD916D"/>
<rect x="62" y="84" width="20" height="20" rx="10" fill="#34104D"/>
<rect x="109" y="84" width="20" height="20" rx="10" fill="#34104D"/>
<path d="M53.7795 65.4729C54.4883 63.4883 55.6747 61.7086 57.234 60.291L58.7849 58.8811C59.8074 57.9516 60.5052 56.7191 60.7762 55.3641C61.1462 53.5144 60.6901 51.5954 59.5276 50.1099L53.9984 43.0449C52.9223 41.6699 51.5216 40.5838 49.922 39.8839C46.4785 38.3774 42.4934 38.8182 39.4625 41.0409L39.3241 41.1424C37.7121 42.3245 36.4584 43.9293 35.7016 45.7794L33.9189 50.1371C32.8855 52.6631 32.2599 55.3372 32.0655 58.0594C31.9283 59.9805 32.0068 61.9109 32.2997 63.8146L33.859 73.9501L37.6196 89.4627C37.7337 89.9333 38.2891 90.1373 38.6807 89.8525L41.9606 87.4671C42.8779 86.8 43.9493 86.3763 45.0747 86.2357L45.4517 86.1885C46.6879 86.034 47.8373 85.4719 48.7182 84.591C49.7688 83.5404 50.359 82.1154 50.359 80.6296V78.3921C50.359 77.4349 50.4839 76.4817 50.7306 75.5568L52.359 69.4501L53.7795 65.4729Z" fill="#2F0B47"/>
<path d="M161.78 48.2063C160.94 45.1864 159.373 42.4092 157.209 40.1091L156.219 39.0558C154.976 37.7341 153.462 36.6847 151.777 35.9761C151.083 35.6841 150.364 35.4519 149.629 35.2822L147.879 34.8781C143.987 33.9793 139.963 33.7683 135.995 34.2551L133.768 34.5282C128.029 36.0104 124 41.1102 124 46.9344V57.3039C124 58.6577 125.118 59.7552 126.498 59.7552C127.481 59.7552 128.372 60.3209 128.776 61.2006L131.898 68.0094C132.456 69.2275 133.19 70.3609 134.076 71.3751L135.889 73.4519C137.893 75.7461 140.215 77.7506 142.756 79.4578C144.167 80.4056 145.382 81.2431 145.593 81.4504C145.892 81.7436 145.847 83.6515 145.734 85.3183C145.664 86.3638 146.115 87.3845 146.969 88.0132C147.414 88.3408 147.942 88.5427 148.496 88.597L152.196 88.9601C152.576 88.9975 152.925 89.1835 153.164 89.4763C153.877 90.3518 155.299 90.0841 155.632 89.0114L158.446 79.9368L161.531 66.3142L162.629 60.1168C163.26 56.5558 163.085 52.9021 162.116 49.415L161.78 48.2063Z" fill="#2F0B47"/>
<path d="M40.2253 35.6194C40.87 40.4128 42.8787 44.925 46.0162 48.6278L52.4148 56.1791C55.8731 59.6075 60.3809 61.8019 65.2321 62.4184L74.5324 63.6004C77.2088 63.9406 79.9064 64.0633 82.603 63.9696C93.288 63.5983 109.608 63.0539 111.627 63.0539C116.01 63.0539 120.463 62.0684 124.853 61.0315C129.66 59.896 133.901 56.9596 136.47 52.7749C138.68 49.1767 139.48 44.8998 138.72 40.7553L138.155 37.6738C137.896 36.2637 137.518 34.8779 137.024 33.5311L135.355 28.9801C132.743 21.8611 128.244 15.572 122.33 10.7752C116.711 6.21808 110.009 3.16407 102.861 1.90445L97.5443 0.967406C92.3723 0.0559042 87.1059 -0.212942 81.8668 0.167085L74.1095 0.729774C69.9859 1.02888 65.9366 1.97651 62.1135 3.53712L59.7658 4.49543C53.2727 7.14588 47.8561 11.8662 44.3722 17.9102L43.3833 19.6258C40.591 24.4699 39.4815 30.0892 40.2253 35.6194Z" fill="#3D135D"/>
<path d="M101.59 111C103.927 111 105.911 112.515 107.543 114.138C108.377 114.968 109.172 115.882 109.915 116.737C110.669 117.605 111.364 118.406 112.032 119.063C113.44 120.449 115.709 120.98 117.706 121.457C118.183 121.57 118.651 121.684 119.059 121.808C119.456 121.929 119.868 122.082 120.203 122.297C120.541 122.515 120.937 122.893 120.993 123.487C121.046 124.04 120.773 124.514 120.485 124.869L120.343 125.043L120.136 125.134C111.572 128.881 105.226 128.509 100.964 126.552C98.8439 125.579 97.2669 124.225 96.2143 122.836C96.1402 122.739 96.0688 122.64 95.9995 122.542C95.9304 122.64 95.8597 122.739 95.7857 122.836C94.7331 124.225 93.156 125.579 91.0364 126.552C86.7736 128.509 80.4288 128.881 71.8645 125.134L71.6571 125.043L71.5152 124.869C71.2266 124.514 70.9539 124.04 71.0066 123.487C71.0633 122.893 71.4594 122.516 71.7972 122.297C72.1315 122.082 72.5444 121.929 72.9409 121.808C73.3487 121.684 73.817 121.57 74.2938 121.457C76.2906 120.98 78.5606 120.449 79.9693 119.063C80.6369 118.406 81.331 117.605 82.0846 116.737C82.8279 115.882 83.6229 114.968 84.4575 114.138C86.0894 112.515 88.0741 111 90.4105 111C92.617 111 94.3972 111.892 95.6074 113.352C95.7467 113.52 95.8765 113.695 95.9995 113.876C96.1227 113.695 96.2541 113.52 96.3935 113.352C97.6037 111.892 99.3839 111 101.59 111Z" fill="#34104D"/>
</svg>
