<svg width="192" height="228" viewBox="0 0 192 228" fill="none" xmlns="http://www.w3.org/2000/svg">
<path d="M144.932 41C151.731 41 157.658 45.6243 159.307 52.2155L159.465 52.845C160.164 55.6401 160.518 58.5102 160.518 61.3912C160.518 65.9431 161.365 70.4554 163.016 74.6977L163.255 75.3129C168.68 81.2603 171.988 89.1693 171.988 97.8505C171.988 102.342 171.1 106.625 169.494 110.538C177.766 117.684 183 128.246 183 140.03C183 161.553 165.539 179 144 179C122.461 179 105 161.553 105 140.03C105 131.877 107.507 124.31 111.791 118.054C107.53 112.439 105 105.44 105 97.8505C105 81.8056 116.3 68.3998 131.381 65.1405L134.903 48.2944C135.792 44.0448 139.542 41 143.886 41H144.932Z" fill="#F46E31"/>
<path d="M47.068 41C40.2687 41 34.3421 45.6243 32.693 52.2155L32.5353 52.845C31.836 55.6401 31.4824 58.5102 31.4824 61.3912C31.4824 65.9431 30.635 70.4554 28.9839 74.6977L28.7446 75.3129C23.3198 81.2603 20.0118 89.1693 20.0118 97.8505C20.0118 102.342 20.9 106.625 22.5057 110.538C14.234 117.684 9 128.246 9 140.03C9 161.553 26.4609 179 48 179C69.5391 179 87 161.553 87 140.03C87 131.877 84.4927 124.31 80.2091 118.054C84.4701 112.439 87 105.44 87 97.8505C87 81.8056 75.7004 68.3998 60.6194 65.1405L57.0967 48.2944C56.2081 44.0448 52.4584 41 48.1138 41H47.068Z" fill="#F46E31"/>
<path d="M25.7174 148.141C33.0375 125.41 54.1893 110 78.0697 110H113.93C137.811 110 158.963 125.41 166.283 148.141L192 228H0L25.7174 148.141Z" fill="#773EB1"/>
<path d="M22.1759 228L30.5635 187.886C30.9027 186.264 32.4926 185.224 34.1143 185.563C35.7359 185.903 36.7756 187.493 36.4365 189.114L28.3058 228H22.1759Z" fill="#6536A2"/>
<path d="M153.324 228L144.937 187.886C144.597 186.264 143.007 185.224 141.386 185.563C139.764 185.903 138.724 187.493 139.063 189.114L147.194 228H153.324Z" fill="#6536A2"/>
<path d="M56.6772 130.583C51.3732 120.629 55.1425 108.261 65.0962 102.957C75.0498 97.6528 87.4184 101.422 92.7224 111.376L97.6726 120.665C102.977 130.618 99.2072 142.988 89.2536 148.292C79.3 153.596 66.9312 149.826 61.6273 139.873L56.6772 130.583Z" fill="#6536A2"/>
<path d="M135.148 131.535C140.704 121.719 137.249 109.258 127.434 103.703C117.619 98.148 105.158 101.602 99.6027 111.417L94.825 119.859C89.2698 129.675 92.7234 142.135 102.539 147.69C112.354 153.246 124.815 149.792 130.37 139.976L135.148 131.535Z" fill="#6536A2"/>
<path d="M121 123C121 133.493 110.031 142 96.5 142C82.969 142 72 133.493 72 123C72 112.507 82.969 104 96.5 104C110.031 104 121 112.507 121 123Z" fill="#EE9A6C"/>
<path d="M46 62C46 34.3858 68.3858 12 96 12C123.614 12 146 34.3858 146 62V84C146 111.614 123.614 134 96 134C68.3858 134 46 111.614 46 84V62Z" fill="#FFA573"/>
<path d="M66.5 26C88.8675 26 107 44.1325 107 66.5V85.5C107 107.107 90.0792 124.76 68.7656 125.936C59.7177 120.047 52.693 111.313 48.9648 100.999C42.9059 100.98 38 96.0634 38 90V84C38 78.9652 41.3834 74.7231 46 73.417V62C46 48.0597 51.7067 35.4538 60.9092 26.3857C62.7368 26.1334 64.603 26 66.5 26Z" fill="#FFC482"/>
<path d="M156 87C156 96.3888 148.389 104 139 104C129.611 104 122 96.3888 122 87C122 77.6112 129.611 70 139 70C148.389 70 156 77.6112 156 87Z" fill="#FFA573"/>
<path d="M38 84C38 77.9249 42.9249 73 49 73C55.0751 73 60 77.9249 60 84V90C60 96.0751 55.0751 101 49 101C42.9249 101 38 96.0751 38 90V84Z" fill="#FFC482"/>
<path d="M62 85C62 79.4771 66.4771 75 72 75C77.5229 75 82 79.4771 82 85C82 90.5229 77.5229 95 72 95C66.4771 95 62 90.5229 62 85Z" fill="#2C2C2C"/>
<path d="M109 85C109 79.4771 113.477 75 119 75C124.523 75 129 79.4771 129 85C129 90.5229 124.523 95 119 95C113.477 95 109 90.5229 109 85Z" fill="#2C2C2C"/>
<path d="M94.9995 2.98605C99.928 0.235581 105.955 -0.486427 111.972 0.297309C120.575 1.41774 129.856 5.63495 137.981 12.4597C146.106 19.2847 151.866 27.7034 154.462 35.9899C157.04 44.2172 156.642 52.9914 151.233 59.4452C145.823 65.8989 137.261 67.8147 128.72 66.7023C120.117 65.5819 110.835 61.3649 102.71 54.5399C99.8305 52.1206 97.2497 49.4993 94.9995 46.7566C92.7495 49.4992 90.1685 52.1207 87.2886 54.5399C79.1638 61.3647 69.8825 65.5819 61.28 66.7023C52.7391 67.8147 44.1769 65.8988 38.7674 59.4452C33.3579 52.9914 32.9604 44.2172 35.5379 35.9899C38.134 27.7034 43.8934 19.2847 52.0183 12.4597C60.1432 5.63473 69.4252 1.41773 78.0277 0.297309C84.045 -0.486371 90.0712 0.235829 94.9995 2.98605Z" fill="#FE8347"/>
<path d="M48 101C48 104.314 45.3137 107 42 107C38.6863 107 36 104.314 36 101C36 97.6863 38.6863 95 42 95C45.3137 95 48 97.6863 48 101Z" fill="#F5F5F5"/>
<path d="M156 101C156 104.314 153.314 107 150 107C146.686 107 144 104.314 144 101C144 97.6863 146.686 95 150 95C153.314 95 156 97.6863 156 101Z" fill="#F5F5F5"/>
</svg>
