<svg width="192" height="233" viewBox="0 0 192 233" fill="none" xmlns="http://www.w3.org/2000/svg">
<path d="M25.7174 153.141C33.0375 130.41 54.1893 115 78.0697 115H113.93C137.811 115 158.963 130.41 166.283 153.141L192 233H0L25.7174 153.141Z" fill="#AC0D4B"/>
<path d="M188.671 222.663L187.792 223.986C185.814 226.964 181.441 226.964 179.463 223.986L170.432 210.395C169.318 208.718 169.318 206.537 170.432 204.86L178.855 192.182L188.671 222.663Z" fill="#7A083B"/>
<path d="M97.4629 189.268C99.4411 186.291 103.814 186.291 105.792 189.268L114.823 202.86C115.937 204.537 115.937 206.718 114.823 208.395L105.792 221.986C103.814 224.964 99.4411 224.964 97.4629 221.986L88.4317 208.395C87.3178 206.718 87.3179 204.537 88.4317 202.86L97.4629 189.268Z" fill="#7A083B"/>
<path d="M45.4629 187.268C47.4411 184.291 51.8138 184.291 53.792 187.268L62.8233 200.86C63.9371 202.537 63.9372 204.718 62.8233 206.395L53.792 219.986C51.8139 222.964 47.4411 222.964 45.4629 219.986L36.4317 206.395C35.3178 204.718 35.3179 202.537 36.4317 200.86L45.4629 187.268Z" fill="#7A083B"/>
<path d="M65.4629 137.268C67.4411 134.291 71.8138 134.291 73.792 137.268L82.8233 150.86C83.9371 152.537 83.9372 154.718 82.8233 156.395L73.792 169.986C71.8139 172.964 67.4411 172.964 65.4629 169.986L56.4317 156.395C55.3178 154.718 55.3179 152.537 56.4317 150.86L65.4629 137.268Z" fill="#7A083B"/>
<path d="M113.463 135.268C115.441 132.291 119.814 132.291 121.792 135.268L130.823 148.86C131.937 150.537 131.937 152.718 130.823 154.395L121.792 167.986C119.814 170.964 115.441 170.964 113.463 167.986L104.432 154.395C103.318 152.718 103.318 150.537 104.432 148.86L113.463 135.268Z" fill="#7A083B"/>
<path d="M37.4952 132.868C37.5985 132.995 37.6988 133.127 37.792 133.268L46.8233 146.86C47.9371 148.537 47.9372 150.718 46.8233 152.395L37.792 165.986C35.8139 168.964 31.4411 168.964 29.4629 165.986L24.1534 157.996L25.7174 153.141C28.1983 145.437 32.2691 138.575 37.4952 132.868Z" fill="#7A083B"/>
<path d="M158.484 137.749C161.817 142.351 164.473 147.522 166.283 153.141L170.214 165.351L169.792 165.986C167.814 168.964 163.441 168.964 161.463 165.986L152.432 152.395C151.318 150.718 151.318 148.537 152.432 146.86L158.484 137.749Z" fill="#7A083B"/>
<path d="M135.757 127C138.43 127 139.769 130.231 137.879 132.121L118.627 151.373C106.131 163.869 85.8694 163.869 73.3726 151.373L54.1213 132.121C52.2314 130.231 53.5699 127 56.2426 127H135.757Z" fill="#CBD2D5"/>
<path d="M125.945 116.5C131.98 116.5 135.026 123.47 130.679 127.656C120.631 137.331 105.789 149.793 96 149.793C86.211 149.793 71.3689 137.331 61.3208 127.656C56.9737 123.47 60.0203 116.5 66.055 116.5H125.945Z" fill="#EE5C5B"/>
<path d="M51 20C61.4934 20 70 28.5066 70 39C70 46.4936 65.6612 52.9727 59.3594 56.0654C58.82 57.9426 57.9554 59.6815 56.832 61.2197C56.9418 61.964 57 62.7253 57 63.5C57 63.9478 56.9796 64.391 56.9424 64.8291C64.1803 69.3283 69 77.3506 69 86.5C69 91.9862 67.2662 97.0669 64.3184 101.227C70.0006 103.348 74.4261 108.043 76.1797 113.894C81.4241 116.657 85 122.16 85 128.5C85 137.613 77.6127 145 68.5 145C63.3378 145 58.7297 142.629 55.7041 138.917C48.2782 138.239 42.056 133.399 39.3916 126.748C32.7201 124.113 28 117.608 28 110C28 108.959 28.0891 107.938 28.2588 106.945C22.0318 102.296 18 94.8689 18 86.5C18 78.94 21.2905 72.1492 26.5166 67.4795C26.1802 66.2095 26 64.8758 26 63.5C26 60.9304 26.6248 58.5067 27.7314 56.373C27.256 54.8328 27 53.1963 27 51.5C27 46.8535 28.921 42.656 32.0117 39.6572C32.0043 39.4391 32 39.22 32 39C32 28.5066 40.5066 20 51 20Z" fill="#8196AE"/>
<path d="M46 67C46 39.3858 68.3858 17 96 17C123.614 17 146 39.3858 146 67V89C146 116.614 123.614 139 96 139C68.3858 139 46 116.614 46 89V67Z" fill="#FF7372"/>
<path d="M158.775 41C172.154 41 183 51.893 183 65.3303C183 70.6336 181.309 75.5395 178.441 79.5369C178.934 81.2354 179.2 83.0314 179.2 84.8899C179.2 86.8622 178.901 88.7645 178.348 90.5541C180.103 93.8406 181.1 97.5968 181.1 101.587C181.1 109.44 177.243 116.388 171.329 120.627C170.009 128.636 163.961 135.041 156.161 136.852C153.374 141.721 148.143 145 142.15 145C133.231 145 126 137.738 126 128.78C126 123.814 128.223 119.37 131.722 116.395C131.893 112.66 133.082 109.193 135.017 106.266C134.711 104.754 134.55 103.189 134.55 101.587C134.55 95.2161 137.088 89.4409 141.204 85.2244C141.202 85.1131 141.2 85.0016 141.2 84.8899C141.2 83.9981 141.262 83.1207 141.38 82.2614C137.153 77.8816 134.55 71.9117 134.55 65.3303C134.55 51.893 145.396 41 158.775 41Z" fill="#7E91A7"/>
<path d="M158.775 41C171.726 41.0002 182.303 51.2074 182.967 64.0488C182.832 67.6356 182.244 71.1052 181.257 74.4033C180.523 76.2352 179.574 77.9572 178.441 79.5369C178.56 79.9454 178.664 80.36 178.756 80.7793C171.996 94.5338 157.864 104 141.522 104C139.17 104 136.865 103.802 134.621 103.426C134.574 102.819 134.55 102.206 134.55 101.587C134.55 95.2161 137.088 89.4409 141.204 85.2244C141.202 85.1131 141.2 85.0016 141.2 84.8899C141.2 83.9981 141.262 83.1207 141.38 82.2614C137.153 77.8816 134.55 71.9117 134.55 65.3303C134.55 51.893 145.396 41 158.775 41Z" fill="#C0CEDE"/>
<path d="M51 20C61.4934 20 70 28.5066 70 39C70 46.4936 65.6612 52.9727 59.3594 56.0654C58.82 57.9426 57.9554 59.6815 56.832 61.2197C56.9418 61.964 57 62.7253 57 63.5C57 63.9478 56.9796 64.391 56.9424 64.8291C59.3362 66.3171 61.4633 68.1922 63.2412 70.3643C62.0821 70.4781 60.9068 70.5381 59.7178 70.5381C45.2084 70.5381 32.7206 61.8736 27.1299 49.4297C27.6077 45.614 29.3875 42.2034 32.0117 39.6572C32.0043 39.4391 32 39.22 32 39C32 28.5066 40.5066 20 51 20Z" fill="#C0CEDE"/>
<path d="M57 59C57 66.1797 51.1797 72 44 72C36.8203 72 31 66.1797 31 59C31 51.8203 36.8203 46 44 46C51.1797 46 57 51.8203 57 59Z" fill="#C0CEDE"/>
<path d="M66.5 31C88.8675 31 107 49.1325 107 71.5V90.5C107 112.107 90.0792 129.76 68.7656 130.936C59.7177 125.047 52.693 116.313 48.9648 105.999C42.9059 105.98 38 101.063 38 95V89C38 83.9652 41.3834 79.7231 46 78.417V67C46 53.0597 51.7067 40.4538 60.9092 31.3857C62.7368 31.1334 64.603 31 66.5 31Z" fill="#FE8E77"/>
<path d="M156 92C156 101.389 148.389 109 139 109C129.611 109 122 101.389 122 92C122 82.6112 129.611 75 139 75C148.389 75 156 82.6112 156 92Z" fill="#FF7372"/>
<path d="M69 49.5C69 59.165 61.165 67 51.5 67C41.835 67 34 59.165 34 49.5C34 39.835 41.835 32 51.5 32C61.165 32 69 39.835 69 49.5Z" fill="#E5EAF0"/>
<path d="M94.5 0C98.7861 0 102.845 0.969115 106.472 2.69707C108.161 2.13116 109.968 1.82418 111.848 1.82418C117.247 1.82418 122.055 4.35455 125.148 8.29341C125.729 8.23773 126.317 8.20879 126.913 8.20879C134.084 8.20879 140.288 12.3383 143.276 18.346C157.489 21.9659 168 34.839 168 50.1648C168 68.2992 153.284 83 135.13 83C118.434 83 104.645 70.5637 102.54 54.4581C99.9942 55.2237 97.2955 55.6374 94.5 55.6374C90.5574 55.6374 86.8069 54.8172 83.408 53.3411C79.4898 55.3893 75.033 56.5494 70.3044 56.5494C54.6723 56.5494 42 43.8904 42 28.2747C42 12.659 54.6723 0 70.3044 0C74.6529 0 78.7716 0.981419 82.453 2.73181C86.0988 0.981531 90.1845 0 94.5 0Z" fill="#E5EAF0"/>
<path d="M38 89C38 82.9249 42.9249 78 49 78C55.0751 78 60 82.9249 60 89V95C60 101.075 55.0751 106 49 106C42.9249 106 38 101.075 38 95V89Z" fill="#FE8E77"/>
<path d="M62 90C62 84.4771 66.4771 80 72 80C77.5229 80 82 84.4771 82 90C82 95.5229 77.5229 100 72 100C66.4771 100 62 95.5229 62 90Z" fill="#3B0D56"/>
<path d="M109 90C109 84.4771 113.477 80 119 80C124.523 80 129 84.4771 129 90C129 95.5229 124.523 100 119 100C113.477 100 109 95.5229 109 90Z" fill="#3B0D56"/>
<path d="M155.137 232.386L144.787 182.886C144.448 181.264 142.858 180.225 141.237 180.564C139.615 180.903 138.575 182.493 138.914 184.114L149.136 233H155.201C155.201 232.797 155.18 232.592 155.137 232.386Z" fill="#7A083B"/>
<path d="M20.0641 232.386L30.4137 182.886C30.7529 181.264 32.3428 180.225 33.9645 180.564C35.5863 180.903 36.6259 182.493 36.2868 184.114L26.0656 233H20C20.0002 232.797 20.021 232.592 20.0641 232.386Z" fill="#7A083B"/>
</svg>
