<svg width="192" height="233" viewBox="0 0 192 233" fill="none" xmlns="http://www.w3.org/2000/svg">
<path d="M25.7174 153.141C33.0375 130.41 54.1893 115 78.0697 115H113.93C137.811 115 158.963 130.41 166.283 153.141L192 233H0L25.7174 153.141Z" fill="#8DBFFE"/>
<path d="M22.1759 233L30.5635 192.886C30.9027 191.264 32.4925 190.224 34.1142 190.563C35.7359 190.903 36.7756 192.492 36.4365 194.114L28.3058 233H22.1759Z" fill="#5D9EFC"/>
<path d="M153.324 233L144.937 192.886C144.597 191.264 143.007 190.224 141.386 190.563C139.764 190.903 138.724 192.492 139.064 194.114L147.194 233H153.324Z" fill="#5D9EFC"/>
<path d="M93.0004 171.643V156.304L87.9486 157.988C86.3769 158.512 84.6786 157.663 84.1547 156.091C83.6309 154.519 84.4804 152.821 86.0521 152.297L95.9408 149L108.84 152.763C110.431 153.227 111.344 154.892 110.88 156.482C110.416 158.073 108.751 158.986 107.161 158.522L99.0004 156.142V171.643C99.0004 173.299 97.6572 174.643 96.0004 174.643C94.3435 174.643 93.0004 173.299 93.0004 171.643Z" fill="#5D9EFC"/>
<path d="M111.659 161.748L91 144.778L134.864 112.626C135.328 112.286 135.982 112.406 136.295 112.889L143.08 123.359C143.651 124.24 143.72 125.355 143.262 126.299L135.753 141.791C133.895 145.624 131.653 149.259 129.061 152.64L123.086 160.434C120.334 164.024 115.154 164.62 111.659 161.748Z" fill="#BBD9FD"/>
<path d="M81.3412 161.748L102 144.778L58.1355 112.626C57.6719 112.286 57.0178 112.406 56.7052 112.889L49.9195 123.359C49.3487 124.24 49.2797 125.355 49.7375 126.299L57.2474 141.791C59.1054 145.624 61.3475 149.259 63.9391 152.64L69.9141 160.434C72.6664 164.024 77.8456 164.62 81.3412 161.748Z" fill="#BBD9FD"/>
<ellipse cx="96" cy="130.5" rx="24" ry="18.5" fill="#FA915C"/>
<rect x="46" y="17" width="100" height="122" rx="50" fill="#FD9E64"/>
<path d="M66.5 31C88.8675 31 107 49.1325 107 71.5V90.5C107 112.107 90.0792 129.76 68.7656 130.936C59.7177 125.047 52.693 116.313 48.9648 105.999C42.9059 105.98 38 101.063 38 95V89C38 83.9652 41.3834 79.7231 46 78.417V67C46 53.0598 51.7067 40.4538 60.9092 31.3857C62.7368 31.1334 64.603 31 66.5 31Z" fill="#FDB26F"/>
<circle cx="139" cy="92" r="17" fill="#FD9E64"/>
<rect x="38" y="78" width="22" height="28" rx="11" fill="#FDB26F"/>
<rect x="62" y="80" width="20" height="20" rx="10" fill="#1F1F1F"/>
<rect x="109" y="80" width="20" height="20" rx="10" fill="#1F1F1F"/>
<rect x="103" y="74" width="32" height="32" rx="16" stroke="#363533" stroke-width="4"/>
<rect x="56" y="74" width="32" height="32" rx="16" stroke="#363533" stroke-width="4"/>
<path d="M141.221 61.4729C140.512 59.4883 139.325 57.7086 137.766 56.291L136.215 54.8811C135.193 53.9516 134.495 52.7191 134.224 51.3641C133.854 49.5144 134.31 47.5954 135.472 46.1099L141.002 39.0449C142.078 37.6699 143.478 36.5838 145.078 35.8839C148.521 34.3774 152.507 34.8182 155.538 37.0409L155.676 37.1424C157.288 38.3245 158.542 39.9293 159.298 41.7794L161.081 46.1371C162.114 48.6631 162.74 51.3372 162.935 54.0594C163.072 55.9805 162.993 57.9109 162.7 59.8146L161.141 69.9501L157.38 85.4627C157.266 85.9333 156.711 86.1373 156.319 85.8525L153.039 83.4671C152.122 82.8 151.051 82.3763 149.925 82.2357L149.548 82.1885C148.312 82.034 147.163 81.4719 146.282 80.591C145.231 79.5404 144.641 78.1154 144.641 76.6296V74.3921C144.641 73.4349 144.516 72.4817 144.269 71.5568L142.641 65.4501L141.221 61.4729Z" fill="#9A432F"/>
<path d="M33.2203 44.2063C34.0596 41.1864 35.6271 38.4092 37.7905 36.1091L38.7813 35.0558C40.0245 33.7341 41.5379 32.6847 43.2226 31.9761C43.9168 31.6841 44.6356 31.4519 45.3708 31.2822L47.1205 30.8781C51.013 29.9793 55.0375 29.7683 59.0053 30.2551L61.2318 30.5282C66.9711 32.0104 71 37.1102 71 42.9344V53.3039C71 54.6577 69.8817 55.7552 68.5021 55.7552C67.5192 55.7552 66.6277 56.3209 66.2243 57.2006L63.1022 64.0094C62.5436 65.2275 61.8103 66.3609 60.9245 67.3751L59.1105 69.4519C57.1067 71.7461 54.7846 73.7506 52.244 75.4578C50.8334 76.4056 49.6184 77.2431 49.4071 77.4504C49.1084 77.7436 49.1532 79.6515 49.2657 81.3183C49.3364 82.3638 48.8852 83.3845 48.031 84.0132C47.5859 84.3408 47.058 84.5427 46.5044 84.597L42.8039 84.9601C42.4237 84.9975 42.0749 85.1835 41.8362 85.4763C41.1225 86.3518 39.7011 86.0841 39.3684 85.0114L36.5542 75.9368L33.4695 62.3142L32.3712 56.1168C31.7401 52.5558 31.9154 48.9021 32.8844 45.415L33.2203 44.2063Z" fill="#7C3726"/>
<path d="M148.755 37.5872C147.574 46.5595 141.606 52.7692 136.076 59.4377C120.319 75.3987 40.4358 75.7596 46.3079 43.0455C48.4786 30.9524 53.6626 19.2167 63.3561 11.1831C77.3709 -0.43179 96.2926 -0.76917 113.511 0.507014C132.176 1.89038 151.399 17.4994 148.755 37.5872Z" fill="#9A432F"/>
<rect x="88" y="85" width="16" height="4" fill="#363533"/>
</svg>
