<svg width="192" height="222" viewBox="0 0 192 222" fill="none" xmlns="http://www.w3.org/2000/svg">
<path d="M185.194 163.035L183.015 169.209C182.019 172.029 180.366 174.571 178.192 176.625C174.549 180.065 169.684 181.91 164.675 181.751L20.4156 177.157C17.2577 177.056 14.2565 175.757 12.0224 173.522C11.015 172.515 10.1882 171.342 9.57835 170.054L8.54195 167.866C6.86821 164.333 6 160.472 6 156.562V155.205C6 150.462 7.06557 145.78 9.11799 141.504L10.8519 137.892C11.609 136.315 12.686 134.912 14.0144 133.773L14.6156 133.258C19.1156 129.401 20.0274 122.791 16.7398 117.86C15.9206 116.631 15.3411 115.259 15.0317 113.815L13.6952 107.577C12.9046 103.888 12.7731 100.088 13.3067 96.3532C13.7662 93.1365 14.7133 90.0086 16.1152 87.0773L17.1446 84.9249C18.7097 81.6524 20.6442 78.5697 22.9103 75.7371L26.3601 71.4249C28.4412 68.8235 30.1143 65.9204 31.3218 62.8154C32.4351 59.9526 33.1411 56.9478 33.4192 53.8887L33.6619 51.2186C33.887 48.7432 34.3028 46.2889 34.9056 43.8776C35.9637 39.6454 37.5902 35.576 39.741 31.7806L40.4585 30.5145C43.4679 25.2037 47.2835 20.3922 51.7688 16.2518L52.3184 15.7446C56.0891 12.2639 60.3099 9.30522 64.8678 6.94767C69.9277 4.3305 75.3493 2.48194 80.9541 1.4629L82.7089 1.14384C86.8819 0.385109 91.1414 0.221523 95.3603 0.657964L98.3225 0.964397C101.746 1.31855 105.077 2.28861 108.156 3.8278L111.995 5.74767C113.64 6.57006 115.059 7.7823 116.128 9.2787C118.244 12.2416 121.661 14 125.302 14H126.95C129.282 14 131.58 14.5633 133.647 15.642L135.933 16.8349C139.905 18.9068 143.246 22.0079 145.609 25.8137L147.662 29.1229C149.873 32.6846 151.499 36.5777 152.477 40.6539L154 47L154.987 53.4181C155.658 57.7753 157.053 61.9893 159.116 65.8854C160.037 67.626 161.088 69.2952 162.258 70.8791L166.16 76.1575C168.044 78.7068 169.569 81.5172 170.682 84.4854C172.531 89.4151 173.218 94.7256 172.676 99.9625L172.389 102.737C172.132 105.223 171.402 107.636 170.238 109.848L169.799 110.682C167.988 114.122 167.416 118.081 168.178 121.892C168.718 124.59 169.907 127.116 171.642 129.251L175.5 134L181.744 141.979C183.563 144.303 184.9 146.967 185.677 149.814C186.864 154.168 186.695 158.78 185.194 163.035Z" fill="#712718"/>
<path d="M25.7174 142.141C33.0375 119.41 54.1893 104 78.0697 104H113.93C137.811 104 158.963 119.41 166.283 142.141L192 222H0L25.7174 142.141Z" fill="#FEF2DD"/>
<path d="M25.7174 142.141C27.7864 135.716 30.9605 129.876 34.9888 124.803C36.6132 122.758 38.3764 120.838 40.2621 119.054C50.2452 109.61 63.6608 104 78.0697 104H113.93C127.913 104 140.961 109.283 150.843 118.226C152.771 119.97 154.578 121.854 156.249 123.865C160.61 129.115 164.038 135.232 166.238 142.002C166.253 142.048 166.268 142.094 166.283 142.141L168.12 147.847L174.955 169.07L176.828 174.887L184.211 197.813L186.073 203.594L192 222H0L5.35409 205.374L7.22818 199.555L14.6956 176.366L16.5807 170.513L23.48 149.088L25.3738 143.208L25.7174 142.141Z" fill="#FEF2DD"/>
<path fill-rule="evenodd" clip-rule="evenodd" d="M179.252 198.527C181.001 198.292 182.653 198.054 184.211 197.813L186.073 203.594C184.194 203.893 182.188 204.187 180.049 204.474C161.211 206.998 131.775 209 87.5 209C48.6778 209 22.5246 207.461 5.35409 205.374L7.22818 199.555" fill="#FDB431"/>
<path fill-rule="evenodd" clip-rule="evenodd" d="M87.5 173C128.346 173 156.359 171.288 174.955 169.07L176.828 174.887C157.913 177.213 129.329 179 87.5 179C55.1422 179 31.5855 177.931 14.6956 176.366L16.5807 170.513C33.1095 171.987 56.0774 173 87.5 173Z" fill="#FDB431"/>
<path fill-rule="evenodd" clip-rule="evenodd" d="M87.5 145C122.409 145 147.943 143.75 166.238 142.002L166.283 142.141L168.12 147.847C149.477 149.687 123.354 151 87.5 151C60.4079 151 39.4854 150.251 23.48 149.088L25.3738 143.208C40.9854 144.296 61.3049 145 87.5 145Z" fill="#FDB431"/>
<path fill-rule="evenodd" clip-rule="evenodd" d="M156.249 123.865C138.837 125.152 116.31 126 87.5 126C66.476 126 49.1674 125.549 34.9888 124.803C36.6132 122.758 38.3764 120.838 40.2621 119.054C53.3364 119.647 68.944 120 87.5 120C113.533 120 134.352 119.305 150.843 118.226C152.771 119.97 154.578 121.854 156.249 123.865Z" fill="#FDB431"/>
<path d="M79.8933 134.247L76.2477 127.599C74.84 125.032 74.7813 121.937 76.0905 119.319C77.5722 116.356 77.2897 112.815 75.3568 110.124L65.8701 96.9172C58.9741 87.3169 45.3033 85.7543 36.4187 93.5509C31.4621 97.9006 28.9667 104.413 29.7477 110.961L32.6313 135.139C34.1747 148.08 39.5727 160.259 48.1245 170.093L53.9091 176.745C54.6353 177.581 55.4243 178.359 56.2691 179.074L58.7048 181.135C60.5241 182.674 61.8254 184.736 62.4319 187.041C63.4125 190.767 62.4797 194.737 59.9424 197.637L50 209H51.3017C57.9034 209 64.3085 206.753 69.4635 202.629L70.0761 202.139C72.6664 200.067 74.8212 197.503 76.4162 194.594L77.6476 192.349C80.7002 186.782 80.9373 180.099 78.2867 174.33C75.595 168.471 75.8835 161.676 79.062 156.067L79.7496 154.854C81.5524 151.672 82.5 148.078 82.5 144.421C82.5 140.865 81.6035 137.365 79.8933 134.247Z" fill="#712819"/>
<path d="M22.1759 222L30.5635 181.886C30.9027 180.264 32.4925 179.225 34.1142 179.564C35.7359 179.903 36.7756 181.493 36.4365 183.114L28.3058 222H22.1759Z" fill="#FDB431"/>
<path d="M153.324 222L144.937 181.886C144.597 180.264 143.007 179.225 141.386 179.564C139.764 179.903 138.724 181.493 139.064 183.114L147.194 222H153.324Z" fill="#FDB431"/>
<ellipse cx="96.5" cy="117" rx="24.5" ry="19" fill="#EE9A6C"/>
<path d="M39.7973 208.417L50 209L57.1932 201.996C64.2356 195.139 66.0696 184.531 61.7381 175.707L60 172.167C57.2455 166.556 51.5391 163 45.2884 163H40.8474C39.3444 163 37.9029 162.403 36.8401 161.34C32.8662 157.366 26.1544 160.977 27.2806 166.483L27.4722 167.42C27.8084 169.063 27.4358 170.772 26.4462 172.126L20.8828 179.739C19.3205 181.877 18.3343 184.381 18.0188 187.01C17.385 192.292 19.5152 197.528 23.6564 200.868L26.8104 203.412C30.5104 206.395 35.0518 208.146 39.7973 208.417Z" fill="#99331D"/>
<rect x="46" y="6" width="100" height="122" rx="50" fill="#FFA573"/>
<path d="M66.5 20C88.8675 20 107 38.1325 107 60.5V79.5C107 101.107 90.0792 118.76 68.7656 119.936C59.7177 114.047 52.693 105.313 48.9648 94.999C42.9059 94.9801 38 90.0634 38 84V78C38 72.9652 41.3834 68.7231 46 67.417V56C46 42.0598 51.7067 29.4538 60.9092 20.3857C62.7368 20.1334 64.603 20 66.5 20Z" fill="#FFC482"/>
<circle cx="139" cy="81" r="17" fill="#FFA573"/>
<rect x="38" y="67" width="22" height="28" rx="11" fill="#FFC482"/>
<rect x="62" y="69" width="20" height="20" rx="10" fill="#2C2C2C"/>
<rect x="109" y="69" width="20" height="20" rx="10" fill="#2C2C2C"/>
<path d="M82.709 1.14419C86.882 0.385466 91.1414 0.221426 95.3604 0.657866L98.3223 0.964507C101.746 1.31865 105.077 2.28867 108.155 3.82779L111.995 5.74771C113.64 6.5701 115.059 7.78256 116.128 9.27896C118.244 12.2415 121.661 13.9996 125.302 13.9997H126.95C129.282 13.9997 131.58 14.5636 133.647 15.6422L135.934 16.8346C139.905 18.9066 143.246 22.0083 145.608 25.8141L147.662 29.1227C149.873 32.6844 151.498 36.5777 152.477 40.654L154 46.9997L154.987 53.4176C155.658 57.7748 157.054 61.9893 159.116 65.8854C160.038 67.6259 161.088 69.2948 162.259 70.8786L162.322 70.9645C159.412 71.4684 156.294 71.0505 153.403 69.4879C152.802 69.1629 152.226 68.7936 151.679 68.3835L146.537 64.527C143.859 62.5181 140.917 60.8851 137.797 59.6715C134.943 58.5618 132.24 57.0996 129.748 55.32L127.833 53.9518C124.626 51.6608 121.74 48.9494 119.255 45.8903L117.456 43.6764C116.82 42.8942 116.263 42.0508 115.794 41.1588L112.101 34.1413C111.731 33.4394 111.003 32.9997 110.21 32.9997C109.459 32.9997 108.764 33.3941 108.378 34.0378L106.463 37.2292C106.155 37.7417 105.901 38.2847 105.705 38.8493L104.309 42.8639C102.784 47.246 100.421 51.2893 97.3516 54.7682C95.4575 56.9148 93.3119 58.8258 90.9619 60.4606L88.6416 62.0749C84.895 64.6812 80.8379 66.8102 76.5645 68.4128C70.2422 70.7836 64.4119 74.3009 59.3652 78.7868L49 87.9997L42.1143 95.7126C38.4987 99.7619 36.5 105.001 36.5 110.429C36.5001 114.086 37.408 117.685 39.1416 120.905L41.4775 125.245C42.8168 127.732 44.5484 129.987 46.6055 131.923L47.9971 133.233C50.6145 135.697 52.5005 138.836 53.4463 142.303C54.4593 146.018 54.3504 149.95 53.1328 153.602L52.4941 155.518C52.1655 156.504 51.7537 157.461 51.2646 158.378L49.7783 161.167C48.632 163.316 48.3018 165.808 48.8496 168.181C49.2747 170.023 50.2092 171.709 51.5459 173.046L52.2295 173.729C53.5276 175.027 54.5389 176.573 55.2129 178.264L26.3379 177.345C26.3677 176.177 26.6098 175.019 27.0586 173.929C28.537 170.339 27.7114 166.211 24.9658 163.465L24.8574 163.357C24.2881 162.788 23.7902 162.151 23.376 161.461C20.1919 156.154 11.9999 160.5 8.49995 156C5 151.5 6.99999 146.5 7.49999 145L10.8516 137.891C11.6086 136.314 12.6863 134.912 14.0146 133.773L14.6152 133.258C19.1151 129.401 20.0275 122.791 16.7402 117.86C15.9211 116.631 15.3407 115.258 15.0312 113.814L13.6953 107.578C12.9048 103.889 12.7731 100.088 13.3066 96.3532C13.7662 93.1365 14.7133 90.0082 16.1152 87.0768L17.1445 84.9245C18.7096 81.6521 20.6441 78.5695 22.9102 75.737L26.3603 71.4245C28.4414 68.8231 30.1148 65.9199 31.3223 62.8151C32.4355 59.9524 33.1409 56.9472 33.4189 53.8883L33.6621 51.2184C33.8871 48.7431 34.3025 46.2889 34.9053 43.8776C35.9633 39.6455 37.5905 35.5763 39.7412 31.7809L40.458 30.5143C43.4674 25.2036 47.2832 20.3919 51.7685 16.2516L52.3184 15.7448C56.089 12.2642 60.3102 9.30546 64.8682 6.94791C69.928 4.33077 75.3494 2.48159 80.9541 1.46255L82.709 1.14419Z" fill="#99331D"/>
</svg>
