<svg width="252" height="624" viewBox="0 0 252 624" fill="none" xmlns="http://www.w3.org/2000/svg">
<path d="M0 134C0 111.909 17.9086 94 40 94H212C234.091 94 252 111.909 252 134V584C252 606.091 234.091 624 212 624H40C17.9086 624 0 606.091 0 584V134Z" fill="#BDBDBD"/>
<path d="M12 134C12 118.536 24.536 106 40 106H212C227.464 106 240 118.536 240 134V584C240 599.464 227.464 612 212 612H40C24.536 612 12 599.464 12 584V134Z" fill="#8A8A8A"/>
<path d="M24 146C24 130.536 36.536 118 52 118H200C215.464 118 228 130.536 228 146V204C228 219.464 215.464 232 200 232H52C36.536 232 24 219.464 24 204V146Z" fill="#AFAFAF"/>
<path d="M155 159C155 155.134 158.134 152 162 152C165.866 152 169 155.134 169 159V452C169 455.866 165.866 459 162 459C158.134 459 155 455.866 155 452V159Z" fill="#515151"/>
<path d="M159 87C159 85.3432 160.343 84 162 84C163.657 84 165 85.3431 165 87V388C165 389.657 163.657 391 162 391C160.343 391 159 389.657 159 388V87Z" fill="#515151"/>
<path d="M198.305 46.1213C199.477 44.9497 201.376 44.9497 202.548 46.1213C203.719 47.2929 203.719 49.1924 202.548 50.364L164.364 88.5477C163.192 89.7193 161.293 89.7193 160.121 88.5477C158.95 87.3762 158.95 85.4767 160.121 84.3051L198.305 46.1213Z" fill="#515151"/>
<path d="M147 187C147 178.716 153.716 172 162 172C170.284 172 177 178.716 177 187V548C177 556.284 170.284 563 162 563C153.716 563 147 556.284 147 548V187Z" fill="#5C5C5C"/>
<path d="M76 73C76 70.2386 78.2386 68 81 68C83.7614 68 86 70.2386 86 73V454C86 456.761 83.7614 459 81 459C78.2386 459 76 456.761 76 454V73Z" fill="#515151"/>
<path d="M66 187C66 178.716 72.7157 172 81 172C89.2843 172 96 178.716 96 187V548C96 556.284 89.2843 563 81 563C72.7157 563 66 556.284 66 548V187Z" fill="#5C5C5C"/>
<path d="M108 42C108 65.196 89.196 84 66 84C42.804 84 24 65.196 24 42C24 18.804 42.804 0 66 0C89.196 0 108 18.804 108 42Z" fill="#515151"/>
<path d="M99 39C99 58.8823 82.8822 75 63 75C43.1177 75 27 58.8823 27 39C27 19.1177 43.1177 3 63 3C82.8822 3 99 19.1177 99 39Z" fill="#B5B5B5"/>
<path d="M61 32C61 40.2843 54.2843 47 46 47C37.7157 47 31 40.2843 31 32C31 23.7157 37.7157 17 46 17C54.2843 17 61 23.7157 61 32Z" fill="#DADADA"/>
</svg>
