<svg width="388" height="400" viewBox="0 0 388 400" fill="none" xmlns="http://www.w3.org/2000/svg">
<path d="M315 366C315 384.778 299.778 400 281 400H49C30.2223 400 15 384.778 15 366V34C15 15.2223 30.2223 0 49 0H281C299.778 0 315 15.2223 315 34V366Z" fill="#EEB02A"/>
<path d="M319.077 92.4267C313.604 75.6225 295.544 66.437 278.74 71.9104L149.427 114.029C132.622 119.503 123.437 137.562 128.91 154.366L195.805 359.747C201.279 376.551 219.338 385.736 236.142 380.263L365.456 338.144C382.26 332.671 391.446 314.611 385.972 297.807L319.077 92.4267Z" fill="#0A0A0C"/>
<path d="M315.274 93.6655C310.485 78.9618 294.683 70.9245 279.979 75.7137L150.665 117.833C135.962 122.622 127.925 138.424 132.714 153.128L199.609 358.508C204.398 373.212 220.2 381.249 234.904 376.46L364.217 334.341C378.921 329.552 386.958 313.749 382.169 299.046L315.274 93.6655Z" fill="#0F0F11"/>
<path fill-rule="evenodd" clip-rule="evenodd" d="M265.163 323.874C275.462 331.609 285.633 334.696 294.505 331.806C319.974 323.51 325.091 269.107 305.934 210.292C286.777 151.477 250.601 110.523 225.132 118.819C216.26 121.709 209.858 130.193 206.091 142.51C208.82 139.134 212.077 136.743 215.847 135.516C238.165 128.246 269.984 164.498 286.917 216.486C303.85 268.474 299.485 316.512 277.167 323.781C273.398 325.009 269.357 324.995 265.163 323.874Z" fill="#1D2125"/>
<path d="M230.476 146.526C228.081 139.174 220.18 135.156 212.828 137.55L197.615 142.506C190.263 144.9 186.244 152.801 188.639 160.153L240.668 319.893C243.063 327.245 250.964 331.264 258.316 328.869L273.529 323.914C280.881 321.519 284.9 313.618 282.505 306.267L230.476 146.526Z" fill="#1D2125"/>
<path d="M206.46 143.831C200.303 124.927 179.986 114.593 161.081 120.75C142.176 126.908 131.843 147.225 138 166.13L195.914 343.936C202.072 362.84 222.388 373.174 241.293 367.017C260.198 360.859 270.532 340.542 264.374 321.637L206.46 143.831Z" fill="#1D2125"/>
<path d="M250 366C250 384.778 234.778 400 216 400H34C15.2223 400 0 384.778 0 366V34C0 15.2223 15.2223 0 34 0H216C234.778 0 250 15.2223 250 34V366Z" fill="#FAD438"/>
<path d="M340 180C340 198.778 324.778 214 306 214H34C15.2223 214 0 198.778 0 180V34C0 15.2223 15.2223 0 34 0H306C324.778 0 340 15.2223 340 34V180Z" fill="#FAD438"/>
<path d="M27 30C27 25.5817 30.5817 22 35 22H137C141.418 22 145 25.5817 145 30V164C145 168.418 141.418 172 137 172H35C30.5817 172 27 168.418 27 164V30Z" fill="#EBEBEB"/>
<path d="M39 0C20.2223 9.98664e-07 5 15.2223 5 34V366C5 384.778 20.2223 400 39 400H34C15.2223 400 0 384.778 0 366V34C0 15.2223 15.2223 0 34 0H39Z" fill="#EEB02A"/>
<path fill-rule="evenodd" clip-rule="evenodd" d="M295 214H250V259C250 234.147 270.147 214 295 214Z" fill="#FAD438"/>
<path d="M36 39.5C36 37.567 37.567 36 39.5 36H67.5C69.433 36 71 37.567 71 39.5C71 41.433 69.433 43 67.5 43H39.5C37.567 43 36 41.433 36 39.5Z" fill="#C9C9C9"/>
<path d="M36 57.5C36 56.1193 37.1193 55 38.5 55H109.5C110.881 55 112 56.1193 112 57.5C112 58.8807 110.881 60 109.5 60H38.5C37.1193 60 36 58.8807 36 57.5Z" fill="#C9C9C9"/>
<path d="M36 67.5C36 66.1193 37.1193 65 38.5 65H85.5C86.8807 65 88 66.1193 88 67.5C88 68.8807 86.8807 70 85.5 70H38.5C37.1193 70 36 68.8807 36 67.5Z" fill="#C9C9C9"/>
<path d="M36 77.5C36 76.1193 37.1193 75 38.5 75H131.5C132.881 75 134 76.1193 134 77.5C134 78.8807 132.881 80 131.5 80H38.5C37.1193 80 36 78.8807 36 77.5Z" fill="#C9C9C9"/>
<path d="M36 87.5C36 86.1193 37.1193 85 38.5 85H112.5C113.881 85 115 86.1193 115 87.5C115 88.8807 113.881 90 112.5 90H38.5C37.1193 90 36 88.8807 36 87.5Z" fill="#C9C9C9"/>
<path d="M36 157.5C36 156.119 37.1193 155 38.5 155H91.5C92.8807 155 94 156.119 94 157.5C94 158.881 92.8807 160 91.5 160H38.5C37.1193 160 36 158.881 36 157.5Z" fill="#C9C9C9"/>
<path d="M114 157.5C114 156.119 115.119 155 116.5 155H131.5C132.881 155 134 156.119 134 157.5C134 158.881 132.881 160 131.5 160H116.5C115.119 160 114 158.881 114 157.5Z" fill="#C9C9C9"/>
</svg>
