<svg width="335" height="302" viewBox="0 0 335 302" fill="none" xmlns="http://www.w3.org/2000/svg">
<path d="M96.2396 150.141C103.56 127.41 124.712 112 148.592 112H184.453C208.333 112 229.485 127.41 236.805 150.141L262.522 230H70.5223L96.2396 150.141Z" fill="#FEFEFE"/>
<path d="M128.522 136L135.022 122.5L199.022 120.5L193.522 150L180.022 212L174.226 230H161.092L151.522 203.5L146.522 161.5L128.522 136Z" fill="#07BFBF"/>
<path d="M194.733 103L194.937 103.061C200.424 104.693 205.352 107.815 209.173 112.078L216.215 119.935C216.774 120.559 217.084 121.367 217.084 122.205C217.084 123.497 216.351 124.677 215.194 125.251L213.914 125.886C210.41 127.624 209.654 132.292 212.431 135.046L218.285 140.852C219.717 142.272 220.522 144.205 220.522 146.221C220.522 147.51 220.193 148.777 219.566 149.902L204.483 176.97C203.24 179.201 200.887 180.583 198.334 180.583C194.446 180.583 191.294 183.735 191.294 187.623V198.855C191.294 201.968 190.499 205.03 188.983 207.749L176.585 230H172.637L172.562 229.256C171.873 222.423 172.208 215.525 173.556 208.79L194.733 103Z" fill="#FFDFD0"/>
<path d="M140.312 103L140.107 103.061C134.62 104.693 129.692 107.815 125.871 112.078L118.829 119.935C118.27 120.559 117.961 121.367 117.961 122.205C117.961 123.497 118.693 124.677 119.851 125.251L121.131 125.886C124.635 127.624 125.39 132.292 122.613 135.046L116.759 140.852C115.328 142.272 114.522 144.205 114.522 146.221C114.522 147.51 114.851 148.777 115.479 149.902L130.562 176.97C131.805 179.201 134.158 180.583 136.711 180.583C140.599 180.583 143.75 183.735 143.75 187.623V198.855C143.75 201.968 144.546 205.03 146.061 207.749L158.46 230H162.408L162.483 229.256C163.172 222.423 162.837 215.525 161.489 208.79L140.312 103Z" fill="#FFDFD0"/>
<path d="M92.6982 230L101.086 189.886C101.425 188.264 103.015 187.224 104.637 187.563C106.258 187.903 107.298 189.493 106.959 191.114L98.8281 230H92.6982Z" fill="#FFDFD0"/>
<path d="M223.846 230L215.459 189.886C215.12 188.264 213.53 187.224 211.908 187.563C210.286 187.903 209.247 189.493 209.586 191.114L217.716 230H223.846Z" fill="#FFDFD0"/>
<path d="M191.522 125C191.522 135.493 180.553 144 167.022 144C153.491 144 142.522 135.493 142.522 125C142.522 114.507 153.491 106 167.022 106C180.553 106 191.522 114.507 191.522 125Z" fill="#EE9A6C"/>
<path d="M116.522 64C116.522 36.3858 138.908 14 166.522 14C194.136 14 216.522 36.3858 216.522 64V86C216.522 113.614 194.136 136 166.522 136C138.908 136 116.522 113.614 116.522 86V64Z" fill="#FFA573"/>
<path d="M137.022 28C159.39 28 177.522 46.1325 177.522 68.5V87.5C177.522 109.107 160.601 126.76 139.288 127.936C130.24 122.047 123.215 113.313 119.487 102.999C113.428 102.98 108.522 98.0634 108.522 92V86C108.522 80.9652 111.906 76.7231 116.522 75.417V64C116.522 50.0598 122.229 37.4538 131.431 28.3857C133.259 28.1334 135.125 28 137.022 28Z" fill="#FFC482"/>
<path d="M226.522 89C226.522 98.3888 218.911 106 209.522 106C200.133 106 192.522 98.3888 192.522 89C192.522 79.6112 200.133 72 209.522 72C218.911 72 226.522 79.6112 226.522 89Z" fill="#FFA573"/>
<path d="M108.522 86C108.522 79.9249 113.447 75 119.522 75C125.597 75 130.522 79.9249 130.522 86V92C130.522 98.0751 125.597 103 119.522 103C113.447 103 108.522 98.0751 108.522 92V86Z" fill="#FFC482"/>
<path d="M132.522 87C132.522 81.4772 136.999 77 142.522 77C148.045 77 152.522 81.4772 152.522 87C152.522 92.5228 148.045 97 142.522 97C136.999 97 132.522 92.5228 132.522 87Z" fill="#2C2C2C"/>
<path d="M179.522 87C179.522 81.4772 183.999 77 189.522 77C195.045 77 199.522 81.4772 199.522 87C199.522 92.5228 195.045 97 189.522 97C183.999 97 179.522 92.5228 179.522 87Z" fill="#2C2C2C"/>
<path d="M117.101 77.5155H110.281L108.35 70.7329L106.419 63.4658L104.971 55.2298L104.195 49.2612C103.749 45.8347 103.867 42.3585 104.542 38.9698L104.599 38.683C105.166 35.8413 106.144 33.0975 107.504 30.5388C108.707 28.2761 110.196 26.1782 111.937 24.2973L112.969 23.1816C114.709 21.3013 116.699 19.6687 118.882 18.3294L121.387 16.7937C123.292 15.6251 125.434 14.8968 127.657 14.6619L129.028 14.5172C131.875 14.2165 134.506 12.8613 136.404 10.7184C137.009 10.0349 137.694 9.42614 138.444 8.90514L140.784 7.27946C142.651 5.98233 144.658 4.8607 146.74 3.94678C149.757 2.62193 152.971 1.7087 156.236 1.25684L161.145 0.577252C163.916 0.193724 166.722 0.134424 169.506 0.400553L170.023 0.449948C173.623 0.793982 177.15 1.67837 180.486 3.07334L182.997 4.12314C185.68 5.24525 188.204 6.71659 190.502 8.49905L193.793 11.0511C196.325 13.014 199.337 14.26 202.515 14.6587C204.416 14.8971 206.265 15.4396 207.993 16.2654L209.942 17.1968C213.626 18.9574 216.929 21.4239 219.663 24.4566L220.793 25.7099C223.375 28.5739 225.45 31.857 226.929 35.4183L226.992 35.5711C228.662 39.5938 229.522 43.9067 229.522 48.2625C229.522 50.9594 229.193 53.6462 228.541 56.2631L223.246 77.5155L222.525 77.6363C221.086 77.8769 219.616 77.8661 218.181 77.6042L217.144 77.4151C215.763 77.163 214.466 76.5708 213.371 75.6918C211.374 74.0882 210.212 71.6651 210.212 69.1036V67.9553C210.212 66.2772 209.819 64.6154 209.071 63.1133C208.549 62.0663 207.86 61.1055 207.034 60.2769L203.453 56.6832L197.66 51.354L194.128 47.218C192.843 45.7143 190.63 45.425 189.002 46.548C185.786 48.7671 182.218 50.4275 178.449 51.4591L177.939 51.5987C175.006 52.4013 171.984 52.8292 168.944 52.8722L142.338 53.2482C140.285 53.2772 138.244 53.5662 136.264 54.1082L135.86 54.2188C134.581 54.569 133.339 55.045 132.153 55.6399L129.932 56.7547C128.129 57.6589 126.607 59.0362 125.527 60.739C124.398 62.5201 123.798 64.5857 123.798 66.6947V70.8042C123.798 72.3264 123.28 73.8056 122.331 74.9959C122.023 75.3821 121.673 75.7337 121.288 76.0428C120.1 76.996 118.623 77.5155 117.101 77.5155Z" fill="#8A2E15"/>
<path d="M161.358 0.326098C164.045 -0.0415373 166.767 -0.0986501 169.467 0.156409L170.354 0.240311C173.847 0.570261 177.27 1.41899 180.508 2.75736L183.228 3.88108C185.932 4.99863 188.476 6.46454 190.795 8.24114L194.105 10.778C195.06 11.5101 196.084 12.1419 197.157 12.6672C197.398 14.933 197.522 17.2333 197.522 19.5622C197.522 28.7862 195.589 37.562 192.103 45.5142C191.147 45.3633 190.136 45.5648 189.283 46.1459C186.042 48.3563 182.444 50.0119 178.649 51.0386L177.961 51.2252C175.116 51.9948 172.184 52.4048 169.235 52.446L142.238 52.8231C140.17 52.852 138.113 53.1393 136.118 53.6791L135.705 53.7913C134.418 54.1394 133.169 54.6127 131.976 55.2044L129.724 56.3215C127.913 57.2193 126.383 58.5883 125.296 60.2819C124.156 62.0589 123.55 64.1213 123.55 66.2276V70.3086C123.55 71.8279 123.029 73.3022 122.072 74.4886C121.761 74.8745 121.407 75.2254 121.018 75.5341C119.822 76.4831 118.335 77 116.804 77H109.924L107.977 70.2426L106.031 63.0026L104.571 54.7972L103.789 48.8533C103.34 45.4382 103.458 41.9728 104.139 38.5956L104.195 38.3175C104.767 35.4827 105.754 32.746 107.126 30.1951C108.337 27.9427 109.837 25.8551 111.588 23.9845L112.628 22.8749C114.386 20.9974 116.395 19.3673 118.599 18.0312L121.118 16.505C123.04 15.3402 125.199 14.614 127.439 14.3801L128.832 14.2349C131.696 13.936 134.344 12.5871 136.257 10.4528C136.868 9.7709 137.559 9.16391 138.315 8.64462L140.713 6.99864C142.569 5.72427 144.544 4.63048 146.612 3.73307L146.842 3.63315C149.793 2.35279 152.908 1.48191 156.098 1.04539L161.358 0.326098Z" fill="#9E3A20"/>
<path d="M132.522 109.484C132.522 103.362 137.13 98.2222 143.215 97.5551L165.215 95.1434C166.084 95.0481 166.961 95.0481 167.83 95.1434L189.83 97.5551C195.915 98.2222 200.522 103.362 200.522 109.484V118.891C200.522 124.529 196.599 129.406 191.092 130.613L169.092 135.437C167.399 135.808 165.645 135.808 163.952 135.437L141.952 130.613C136.446 129.406 132.522 124.529 132.522 118.891V109.484Z" fill="#19E9E9"/>
<path d="M162.762 100.549C165.254 100.17 167.79 100.17 170.283 100.549L189.823 103.522C190.915 103.689 191.666 104.709 191.5 105.801C191.334 106.893 190.313 107.644 189.221 107.478L169.681 104.504C167.587 104.185 165.457 104.185 163.363 104.504L143.823 107.478C142.731 107.644 141.711 106.893 141.545 105.801C141.379 104.709 142.13 103.689 143.221 103.522L162.762 100.549Z" fill="#07BFBF"/>
<path d="M247.43 122.648C246.811 121.723 247.041 120.473 247.949 119.828C248.857 119.184 250.113 119.379 250.782 120.269L290.48 173.029C291.798 174.78 291.41 177.273 289.624 178.541C287.837 179.809 285.356 179.353 284.138 177.531L247.43 122.648Z" fill="#82849B"/>
<path d="M261.811 141.281C261.326 140.597 261.487 139.65 262.171 139.165C262.843 138.688 263.773 138.834 264.266 139.495L287.295 170.355C287.958 171.245 287.76 172.506 286.855 173.149C285.965 173.78 284.731 173.571 284.099 172.681L261.811 141.281Z" fill="#C6C0D2"/>
<path d="M242.732 124.758C239.855 120.705 240.808 115.086 244.861 112.209C248.915 109.332 254.533 110.286 257.41 114.339C260.287 118.392 259.333 124.011 255.28 126.888C251.227 129.765 245.609 128.811 242.732 124.758Z" fill="#82849B"/>
<path d="M244.073 123.192C241.676 119.815 242.47 115.133 245.848 112.735C249.226 110.338 253.907 111.132 256.305 114.51C258.703 117.888 257.908 122.57 254.53 124.967C251.152 127.365 246.471 126.57 244.073 123.192Z" fill="#D0E3EB"/>
<path d="M275.44 32.9528C276.761 30.2174 280.049 29.0708 282.785 30.3917C285.52 31.7126 286.667 35.0008 285.346 37.7362L258.82 92.6667C257.499 95.402 254.21 96.5487 251.475 95.2278C248.74 93.9069 247.593 90.6186 248.914 87.8833L275.44 32.9528Z" fill="#52E6DA"/>
<path d="M48.3144 135.402C47.7446 132.419 44.864 130.462 41.8804 131.032C38.8967 131.601 36.9399 134.482 37.5096 137.466L48.951 197.383C49.5208 200.367 52.4014 202.324 55.385 201.754C58.3687 201.184 60.3256 198.303 59.7558 195.32L48.3144 135.402Z" fill="#52E6DA"/>
<path d="M269.475 54.5033C270.316 52.7626 272.408 52.033 274.149 52.8736C275.89 53.7141 276.619 55.8066 275.779 57.5473L260.559 89.0648C259.718 90.8055 257.626 91.5352 255.885 90.6946C254.145 89.854 253.415 87.7615 254.255 86.0208L269.475 54.5033Z" fill="#20B8C5"/>
<path d="M48.5117 157.762C48.1492 155.863 46.3161 154.618 44.4174 154.981C42.5187 155.343 41.2734 157.176 41.636 159.075L48.2008 193.454C48.5633 195.353 50.3964 196.598 52.2951 196.235C54.1938 195.873 55.4391 194.04 55.0765 192.141L48.5117 157.762Z" fill="#20B8C5"/>
<path d="M278.39 36.0427C278.87 35.048 280.066 34.6311 281.061 35.1114L289.165 39.0251C290.16 39.5054 290.577 40.7011 290.096 41.6958C289.616 42.6905 288.42 43.1074 287.426 42.6271L279.321 38.7134C278.327 38.2331 277.91 37.0374 278.39 36.0427Z" fill="#FBE5C0"/>
<path d="M276.216 40.5452C276.696 39.5505 277.892 39.1336 278.886 39.6139L286.991 43.5276C287.985 44.0079 288.402 45.2036 287.922 46.1983C287.442 47.193 286.246 47.6099 285.251 47.1296L277.147 43.2159C276.152 42.7356 275.735 41.5399 276.216 40.5452Z" fill="#FBE5C0"/>
<path d="M274.041 45.0477C274.522 44.053 275.717 43.6361 276.712 44.1164L284.817 48.0301C285.811 48.5104 286.228 49.7061 285.748 50.7008C285.268 51.6955 284.072 52.1124 283.077 51.6321L274.973 47.7184C273.978 47.2381 273.561 46.0424 274.041 45.0477Z" fill="#FBE5C0"/>
<path d="M44.6669 137.626C44.4597 136.541 43.4123 135.829 42.3273 136.036L33.487 137.724C32.4021 137.932 31.6905 138.979 31.8976 140.064C32.1048 141.149 33.1523 141.861 34.2373 141.653L43.0775 139.965C44.1625 139.758 44.8741 138.711 44.6669 137.626Z" fill="#FBE5C0"/>
<path d="M45.6047 142.537C45.3976 141.452 44.3501 140.74 43.2651 140.948L34.4248 142.636C33.3399 142.843 32.6283 143.89 32.8355 144.975C33.0426 146.06 34.0901 146.772 35.1751 146.565L44.0154 144.877C45.1003 144.669 45.8119 143.622 45.6047 142.537Z" fill="#FBE5C0"/>
<path d="M46.5426 147.448C46.3354 146.363 45.2879 145.652 44.2029 145.859L35.3627 147.547C34.2777 147.754 33.5661 148.802 33.7733 149.887C33.9805 150.971 35.028 151.683 36.1129 151.476L44.9532 149.788C46.0382 149.581 46.7498 148.533 46.5426 147.448Z" fill="#FBE5C0"/>
<path d="M277.458 33.3723C277.939 32.3776 279.134 31.9607 280.129 32.441L288.233 36.3547C289.228 36.835 289.645 38.0304 289.165 39.0251C288.685 40.0198 287.489 40.437 286.494 39.9567L278.39 36.0427C277.395 35.5624 276.978 34.367 277.458 33.3723Z" fill="#E9FECA"/>
<path d="M275.284 37.8748C275.764 36.8801 276.96 36.4632 277.955 36.9435L286.059 40.8572C287.054 41.3375 287.471 42.5329 286.991 43.5276C286.51 44.5223 285.314 44.9395 284.32 44.4592L276.216 40.5452C275.221 40.0649 274.804 38.8695 275.284 37.8748Z" fill="#E9FECA"/>
<path d="M273.11 42.3773C273.59 41.3826 274.786 40.9657 275.78 41.446L283.885 45.3597C284.88 45.84 285.297 47.0354 284.817 48.0301C284.336 49.0248 283.14 49.442 282.145 48.9617L274.041 45.0477C273.047 44.5674 272.629 43.372 273.11 42.3773Z" fill="#E9FECA"/>
<path d="M46.2563 135.286C46.0491 134.201 45.0016 133.49 43.9166 133.697L35.0764 135.385C33.9914 135.592 33.2798 136.639 33.487 137.724C33.6942 138.809 34.7417 139.521 35.8266 139.314L44.6669 137.626C45.7519 137.418 46.4635 136.371 46.2563 135.286Z" fill="#E9FECA"/>
<path d="M47.1941 140.198C46.9869 139.113 45.9394 138.401 44.8545 138.608L36.0142 140.296C34.9292 140.503 34.2177 141.551 34.4248 142.636C34.632 143.721 35.6795 144.432 36.7645 144.225L45.6047 142.537C46.6897 142.33 47.4013 141.283 47.1941 140.198Z" fill="#E9FECA"/>
<path d="M48.1319 145.109C47.9247 144.024 46.8773 143.312 45.7923 143.519L36.952 145.208C35.8671 145.415 35.1555 146.462 35.3627 147.547C35.5698 148.632 36.6173 149.344 37.7023 149.137L46.5426 147.448C47.6275 147.241 48.3391 146.194 48.1319 145.109Z" fill="#E9FECA"/>
<path d="M9.22852 271H6.875V258.695H2.35352V271H0V256.781H9.22852V271Z" fill="#4C4C4C"/>
<path d="M11.7973 275.062V260.434H13.9457L14.0336 261.518C14.1768 261.342 14.3331 261.182 14.5023 261.039C14.6716 260.896 14.8539 260.772 15.0492 260.668C15.3031 260.531 15.5831 260.427 15.8891 260.355C16.1951 260.277 16.5206 260.238 16.8656 260.238C17.5427 260.238 18.1384 260.368 18.6527 260.629C19.1736 260.889 19.6098 261.257 19.9613 261.732C20.3064 262.208 20.5701 262.777 20.7523 263.441C20.9346 264.099 21.0258 264.825 21.0258 265.619V265.824C21.0258 266.586 20.9346 267.296 20.7523 267.953C20.5766 268.611 20.3129 269.177 19.9613 269.652C19.6098 270.134 19.1768 270.512 18.6625 270.785C18.1482 271.059 17.559 271.195 16.8949 271.195C16.5173 271.195 16.169 271.156 15.85 271.078C15.5375 271 15.2478 270.886 14.9809 270.736C14.8246 270.645 14.6749 270.541 14.5316 270.424C14.3884 270.307 14.2549 270.18 14.1313 270.043V275.062H11.7973ZM18.6918 265.619C18.6918 265.144 18.643 264.698 18.5453 264.281C18.4542 263.858 18.3109 263.49 18.1156 263.178C17.9138 262.865 17.6566 262.618 17.3441 262.436C17.0316 262.253 16.6573 262.162 16.2211 262.162C15.9802 262.162 15.7556 262.188 15.5473 262.24C15.3389 262.292 15.1534 262.367 14.9906 262.465C14.8018 262.569 14.6358 262.699 14.4926 262.855C14.3559 263.012 14.2354 263.188 14.1313 263.383V268.08C14.2224 268.262 14.3331 268.428 14.4633 268.578C14.5935 268.728 14.7432 268.858 14.9125 268.969C15.0883 269.073 15.2868 269.158 15.5082 269.223C15.7296 269.281 15.9737 269.311 16.2406 269.311C16.6768 269.311 17.0479 269.219 17.3539 269.037C17.6664 268.848 17.9203 268.594 18.1156 268.275C18.3174 267.95 18.4639 267.579 18.5551 267.162C18.6462 266.739 18.6918 266.293 18.6918 265.824V265.619Z" fill="#4C4C4C"/>
<path d="M30.0398 260.434H32.3738V271H30.0398V263.822L25.5672 271H23.2332V260.434H25.5672V267.621L30.0398 260.434Z" fill="#4C4C4C"/>
<path d="M34.9426 271V260.434H39.2297C39.9003 260.434 40.5057 260.495 41.0461 260.619C41.593 260.736 42.0585 260.912 42.4426 261.146C42.8267 261.387 43.1197 261.693 43.3215 262.064C43.5298 262.429 43.634 262.862 43.634 263.363C43.634 263.656 43.5786 263.933 43.468 264.193C43.3573 264.454 43.1945 264.688 42.9797 264.896C42.8365 265.033 42.6672 265.16 42.4719 265.277C42.2766 265.388 42.0617 265.486 41.8273 265.57L41.925 265.59C42.2766 265.674 42.5826 265.795 42.843 265.951C43.1099 266.101 43.3378 266.277 43.5266 266.479C43.7154 266.693 43.8553 266.928 43.9465 267.182C44.0441 267.436 44.093 267.706 44.093 267.992C44.093 268.493 43.9953 268.933 43.8 269.311C43.6112 269.682 43.3378 269.991 42.9797 270.238C42.6216 270.492 42.1822 270.684 41.6613 270.814C41.147 270.938 40.5611 271 39.9035 271H34.9426ZM37.2766 266.498V269.135H39.9035C40.229 269.135 40.509 269.105 40.7434 269.047C40.9842 268.982 41.1796 268.894 41.3293 268.783C41.4725 268.673 41.5799 268.536 41.6516 268.373C41.7232 268.21 41.759 268.025 41.759 267.816C41.759 267.615 41.7232 267.436 41.6516 267.279C41.5799 267.117 41.4725 266.98 41.3293 266.869C41.1796 266.752 40.9842 266.661 40.7434 266.596C40.509 266.531 40.229 266.498 39.9035 266.498H37.2766ZM37.2766 264.818H39.3176C39.6822 264.818 39.9979 264.789 40.2648 264.73C40.5318 264.665 40.7466 264.568 40.9094 264.438C41.0396 264.34 41.1372 264.223 41.2023 264.086C41.2674 263.949 41.3 263.79 41.3 263.607C41.3 263.393 41.2577 263.207 41.173 263.051C41.0949 262.888 40.9712 262.751 40.802 262.641C40.6392 262.53 40.4243 262.449 40.1574 262.396C39.8905 262.338 39.5812 262.309 39.2297 262.309H37.2766V264.818Z" fill="#4C4C4C"/>
<path d="M51.5445 271.195C50.7633 271.195 50.0471 271.065 49.3961 270.805C48.7516 270.544 48.1982 270.183 47.7359 269.721C47.2737 269.265 46.9156 268.728 46.6617 268.109C46.4143 267.484 46.2906 266.811 46.2906 266.088V265.688C46.2906 264.861 46.4208 264.112 46.6813 263.441C46.9417 262.771 47.2997 262.198 47.7555 261.723C48.2112 261.247 48.7385 260.883 49.3375 260.629C49.943 260.368 50.5875 260.238 51.2711 260.238C52.0328 260.238 52.7066 260.368 53.2926 260.629C53.8785 260.883 54.3701 261.238 54.7672 261.693C55.1643 262.156 55.4638 262.706 55.6656 263.344C55.8674 263.982 55.9684 264.678 55.9684 265.434V266.439H48.6441V266.488C48.7158 266.951 48.8264 267.338 48.9762 267.65C49.1259 267.963 49.331 268.243 49.5914 268.49C49.8518 268.751 50.1578 268.952 50.5094 269.096C50.8674 269.239 51.2581 269.311 51.6813 269.311C52.2607 269.311 52.801 269.2 53.3023 268.979C53.8036 268.751 54.2171 268.428 54.5426 268.012L55.7926 269.223C55.441 269.73 54.9007 270.186 54.1715 270.59C53.4488 270.993 52.5732 271.195 51.5445 271.195ZM51.2613 262.133C50.9293 262.133 50.6201 262.195 50.3336 262.318C50.0536 262.436 49.803 262.605 49.5816 262.826C49.3603 263.054 49.1747 263.327 49.025 263.646C48.8753 263.965 48.7646 264.327 48.693 264.73H53.6637V264.574C53.6637 264.268 53.6083 263.965 53.4977 263.666C53.387 263.36 53.2307 263.093 53.0289 262.865C52.8336 262.644 52.5862 262.468 52.2867 262.338C51.9938 262.201 51.652 262.133 51.2613 262.133Z" fill="#4C4C4C"/>
<path d="M68.2246 262.309H64.0938V271H61.75V262.309H57.668V260.434H68.2246V262.309Z" fill="#4C4C4C"/>
<path d="M74.4359 269.32C74.7289 269.32 75.0089 269.278 75.2758 269.193C75.5492 269.102 75.7901 268.975 75.9984 268.812C76.2003 268.65 76.3598 268.458 76.477 268.236C76.6006 268.015 76.6625 267.771 76.6625 267.504H78.8598C78.8663 268.018 78.7491 268.503 78.5082 268.959C78.2738 269.408 77.9548 269.796 77.5512 270.121C77.141 270.46 76.669 270.727 76.1352 270.922C75.6078 271.111 75.0512 271.205 74.4652 271.205C73.6514 271.205 72.9385 271.065 72.3266 270.785C71.7211 270.499 71.2165 270.115 70.8129 269.633C70.4027 269.151 70.0935 268.591 69.8852 267.953C69.6768 267.309 69.5727 266.622 69.5727 265.893V265.551C69.5727 264.828 69.6736 264.145 69.8754 263.5C70.0837 262.855 70.393 262.292 70.8031 261.811C71.2133 261.329 71.7211 260.948 72.3266 260.668C72.9385 260.382 73.6482 260.238 74.4555 260.238C75.0935 260.238 75.6827 260.336 76.223 260.531C76.7699 260.727 77.2387 261 77.6293 261.352C78.0199 261.703 78.3227 262.123 78.5375 262.611C78.7589 263.1 78.8663 263.637 78.8598 264.223H76.6625C76.6625 263.936 76.6072 263.666 76.4965 263.412C76.3923 263.158 76.2426 262.937 76.0473 262.748C75.8454 262.559 75.6046 262.41 75.3246 262.299C75.0512 262.188 74.7549 262.133 74.4359 262.133C73.9477 262.133 73.5408 262.234 73.2152 262.436C72.8962 262.631 72.6423 262.888 72.4535 263.207C72.2517 263.526 72.1085 263.891 72.0238 264.301C71.9457 264.711 71.9066 265.128 71.9066 265.551V265.893C71.9066 266.322 71.9457 266.745 72.0238 267.162C72.1085 267.572 72.2484 267.934 72.4437 268.246C72.6326 268.572 72.8897 268.832 73.2152 269.027C73.5408 269.223 73.9477 269.32 74.4359 269.32Z" fill="#4C4C4C"/>
<path d="M91.448 262.309H87.3172V271H84.9734V262.309H80.8914V260.434H91.448V262.309Z" fill="#4C4C4C"/>
<path d="M93.0012 271V260.434H97.2883C97.9589 260.434 98.5643 260.495 99.1047 260.619C99.6516 260.736 100.117 260.912 100.501 261.146C100.885 261.387 101.178 261.693 101.38 262.064C101.588 262.429 101.693 262.862 101.693 263.363C101.693 263.656 101.637 263.933 101.527 264.193C101.416 264.454 101.253 264.688 101.038 264.896C100.895 265.033 100.726 265.16 100.53 265.277C100.335 265.388 100.12 265.486 99.8859 265.57L99.9836 265.59C100.335 265.674 100.641 265.795 100.902 265.951C101.168 266.101 101.396 266.277 101.585 266.479C101.774 266.693 101.914 266.928 102.005 267.182C102.103 267.436 102.152 267.706 102.152 267.992C102.152 268.493 102.054 268.933 101.859 269.311C101.67 269.682 101.396 269.991 101.038 270.238C100.68 270.492 100.241 270.684 99.7199 270.814C99.2056 270.938 98.6197 271 97.9621 271H93.0012ZM95.3352 266.498V269.135H97.9621C98.2876 269.135 98.5676 269.105 98.802 269.047C99.0428 268.982 99.2382 268.894 99.3879 268.783C99.5311 268.673 99.6385 268.536 99.7102 268.373C99.7818 268.21 99.8176 268.025 99.8176 267.816C99.8176 267.615 99.7818 267.436 99.7102 267.279C99.6385 267.117 99.5311 266.98 99.3879 266.869C99.2382 266.752 99.0428 266.661 98.802 266.596C98.5676 266.531 98.2876 266.498 97.9621 266.498H95.3352ZM95.3352 264.818H97.3762C97.7408 264.818 98.0565 264.789 98.3234 264.73C98.5904 264.665 98.8052 264.568 98.968 264.438C99.0982 264.34 99.1958 264.223 99.2609 264.086C99.326 263.949 99.3586 263.79 99.3586 263.607C99.3586 263.393 99.3163 263.207 99.2316 263.051C99.1535 262.888 99.0298 262.751 98.8605 262.641C98.6978 262.53 98.4829 262.449 98.216 262.396C97.9491 262.338 97.6398 262.309 97.2883 262.309H95.3352V264.818Z" fill="#4C4C4C"/>
<path d="M106 275.268C105.772 275.268 105.554 275.248 105.345 275.209C105.143 275.176 104.948 275.137 104.759 275.092L105.082 273.266C105.212 273.272 105.358 273.279 105.521 273.285C105.69 273.298 105.827 273.305 105.931 273.305C106.159 273.305 106.364 273.236 106.546 273.1C106.729 272.969 106.888 272.82 107.025 272.65C107.155 272.481 107.259 272.331 107.338 272.201C107.422 272.071 107.5 271.934 107.572 271.791L108.236 270.531L103.734 260.434H106.302L108.929 266.889L109.291 268.051L109.73 266.918L112.279 260.434H114.867L109.505 272.602C109.382 272.875 109.226 273.165 109.037 273.471C108.854 273.783 108.623 274.07 108.343 274.33C108.063 274.597 107.731 274.818 107.347 274.994C106.963 275.176 106.514 275.268 106 275.268Z" fill="#4C4C4C"/>
<path d="M121.215 271.195C120.434 271.195 119.717 271.065 119.066 270.805C118.422 270.544 117.868 270.183 117.406 269.721C116.944 269.265 116.586 268.728 116.332 268.109C116.085 267.484 115.961 266.811 115.961 266.088V265.688C115.961 264.861 116.091 264.112 116.352 263.441C116.612 262.771 116.97 262.198 117.426 261.723C117.882 261.247 118.409 260.883 119.008 260.629C119.613 260.368 120.258 260.238 120.941 260.238C121.703 260.238 122.377 260.368 122.963 260.629C123.549 260.883 124.04 261.238 124.438 261.693C124.835 262.156 125.134 262.706 125.336 263.344C125.538 263.982 125.639 264.678 125.639 265.434V266.439H118.314V266.488C118.386 266.951 118.497 267.338 118.646 267.65C118.796 267.963 119.001 268.243 119.262 268.49C119.522 268.751 119.828 268.952 120.18 269.096C120.538 269.239 120.928 269.311 121.352 269.311C121.931 269.311 122.471 269.2 122.973 268.979C123.474 268.751 123.887 268.428 124.213 268.012L125.463 269.223C125.111 269.73 124.571 270.186 123.842 270.59C123.119 270.993 122.243 271.195 121.215 271.195ZM120.932 262.133C120.6 262.133 120.29 262.195 120.004 262.318C119.724 262.436 119.473 262.605 119.252 262.826C119.031 263.054 118.845 263.327 118.695 263.646C118.546 263.965 118.435 264.327 118.363 264.73H123.334V264.574C123.334 264.268 123.279 263.965 123.168 263.666C123.057 263.36 122.901 263.093 122.699 262.865C122.504 262.644 122.257 262.468 121.957 262.338C121.664 262.201 121.322 262.133 120.932 262.133Z" fill="#4C4C4C"/>
<path d="M132.309 268.119L134.116 260.434H137.036V271H134.877V264.848L133.1 271H131.508L129.731 264.838V271H127.582V260.434H130.522L132.309 268.119Z" fill="#4C4C4C"/>
<path d="M151.04 271V256.781H155.591C156.281 256.781 156.929 256.859 157.534 257.016C158.14 257.165 158.664 257.396 159.107 257.709C159.549 258.021 159.894 258.422 160.142 258.91C160.396 259.392 160.523 259.965 160.523 260.629C160.516 261.033 160.445 261.41 160.308 261.762C160.178 262.107 159.989 262.413 159.741 262.68C159.566 262.875 159.367 263.048 159.146 263.197C158.931 263.34 158.68 263.471 158.394 263.588V263.607C158.817 263.718 159.178 263.881 159.478 264.096C159.777 264.304 160.028 264.542 160.23 264.809C160.438 265.095 160.594 265.414 160.698 265.766C160.809 266.111 160.864 266.475 160.864 266.859C160.871 267.536 160.751 268.132 160.503 268.646C160.256 269.161 159.914 269.59 159.478 269.936C159.042 270.287 158.521 270.554 157.915 270.736C157.316 270.912 156.665 271 155.962 271H151.04ZM153.404 264.574V269.066H155.982C156.353 269.066 156.691 269.014 156.997 268.91C157.303 268.806 157.564 268.663 157.779 268.48C158.013 268.292 158.192 268.061 158.316 267.787C158.446 267.507 158.511 267.198 158.511 266.859C158.511 266.501 158.459 266.186 158.355 265.912C158.251 265.632 158.094 265.395 157.886 265.199C157.678 265.004 157.424 264.854 157.124 264.75C156.825 264.639 156.483 264.581 156.099 264.574H153.404ZM153.404 262.787H155.64C156.024 262.781 156.376 262.729 156.695 262.631C157.02 262.533 157.293 262.39 157.515 262.201C157.717 262.032 157.876 261.827 157.993 261.586C158.111 261.345 158.169 261.068 158.169 260.756C158.169 260.424 158.114 260.137 158.003 259.896C157.899 259.649 157.749 259.447 157.554 259.291C157.333 259.096 157.056 258.956 156.724 258.871C156.392 258.78 156.024 258.731 155.62 258.725H153.404V262.787Z" fill="#4C4C4C"/>
<path d="M169.478 271C169.407 270.87 169.348 270.714 169.302 270.531C169.263 270.342 169.227 270.147 169.195 269.945C169.032 270.115 168.847 270.277 168.638 270.434C168.436 270.583 168.209 270.714 167.955 270.824C167.701 270.941 167.427 271.033 167.134 271.098C166.841 271.163 166.526 271.195 166.187 271.195C165.64 271.195 165.139 271.117 164.683 270.961C164.234 270.798 163.85 270.577 163.531 270.297C163.205 270.023 162.951 269.695 162.769 269.311C162.593 268.92 162.505 268.5 162.505 268.051C162.505 267.471 162.619 266.96 162.847 266.518C163.082 266.068 163.42 265.697 163.863 265.404C164.273 265.131 164.778 264.923 165.377 264.779C165.982 264.636 166.666 264.564 167.427 264.564H169.127V263.852C169.127 263.578 169.078 263.331 168.98 263.109C168.889 262.888 168.755 262.696 168.58 262.533C168.391 262.37 168.16 262.247 167.886 262.162C167.619 262.071 167.31 262.025 166.959 262.025C166.64 262.025 166.36 262.064 166.119 262.143C165.884 262.221 165.689 262.328 165.533 262.465C165.377 262.589 165.259 262.742 165.181 262.924C165.11 263.1 165.074 263.288 165.074 263.49H162.73C162.737 263.067 162.837 262.66 163.033 262.27C163.228 261.879 163.515 261.534 163.892 261.234C164.257 260.928 164.706 260.688 165.24 260.512C165.78 260.329 166.395 260.238 167.086 260.238C167.704 260.238 168.28 260.316 168.814 260.473C169.354 260.622 169.82 260.847 170.211 261.146C170.601 261.446 170.907 261.827 171.129 262.289C171.35 262.745 171.461 263.272 171.461 263.871V268.568C171.461 269.044 171.493 269.473 171.558 269.857C171.63 270.235 171.731 270.561 171.861 270.834V271H169.478ZM166.636 269.32C166.942 269.32 167.226 269.281 167.486 269.203C167.753 269.125 167.994 269.024 168.209 268.9C168.423 268.777 168.609 268.637 168.765 268.48C168.921 268.324 169.042 268.161 169.127 267.992V266.039H167.623C167.115 266.039 166.675 266.088 166.304 266.186C165.933 266.277 165.637 266.41 165.416 266.586C165.22 266.736 165.074 266.915 164.976 267.123C164.885 267.331 164.839 267.566 164.839 267.826C164.839 268.041 164.879 268.243 164.957 268.432C165.035 268.614 165.149 268.77 165.298 268.9C165.448 269.031 165.634 269.135 165.855 269.213C166.076 269.285 166.337 269.32 166.636 269.32Z" fill="#4C4C4C"/>
<path d="M178.941 269.32C179.234 269.32 179.514 269.278 179.781 269.193C180.055 269.102 180.296 268.975 180.504 268.812C180.706 268.65 180.865 268.458 180.982 268.236C181.106 268.015 181.168 267.771 181.168 267.504H183.365C183.372 268.018 183.255 268.503 183.014 268.959C182.779 269.408 182.46 269.796 182.057 270.121C181.646 270.46 181.174 270.727 180.641 270.922C180.113 271.111 179.557 271.205 178.971 271.205C178.157 271.205 177.444 271.065 176.832 270.785C176.227 270.499 175.722 270.115 175.318 269.633C174.908 269.151 174.599 268.591 174.391 267.953C174.182 267.309 174.078 266.622 174.078 265.893V265.551C174.078 264.828 174.179 264.145 174.381 263.5C174.589 262.855 174.898 262.292 175.309 261.811C175.719 261.329 176.227 260.948 176.832 260.668C177.444 260.382 178.154 260.238 178.961 260.238C179.599 260.238 180.188 260.336 180.729 260.531C181.275 260.727 181.744 261 182.135 261.352C182.525 261.703 182.828 262.123 183.043 262.611C183.264 263.1 183.372 263.637 183.365 264.223H181.168C181.168 263.936 181.113 263.666 181.002 263.412C180.898 263.158 180.748 262.937 180.553 262.748C180.351 262.559 180.11 262.41 179.83 262.299C179.557 262.188 179.26 262.133 178.941 262.133C178.453 262.133 178.046 262.234 177.721 262.436C177.402 262.631 177.148 262.888 176.959 263.207C176.757 263.526 176.614 263.891 176.529 264.301C176.451 264.711 176.412 265.128 176.412 265.551V265.893C176.412 266.322 176.451 266.745 176.529 267.162C176.614 267.572 176.754 267.934 176.949 268.246C177.138 268.572 177.395 268.832 177.721 269.027C178.046 269.223 178.453 269.32 178.941 269.32Z" fill="#4C4C4C"/>
<path d="M197.507 271V260.434H201.794C202.464 260.434 203.07 260.495 203.61 260.619C204.157 260.736 204.623 260.912 205.007 261.146C205.391 261.387 205.684 261.693 205.886 262.064C206.094 262.429 206.198 262.862 206.198 263.363C206.198 263.656 206.143 263.933 206.032 264.193C205.921 264.454 205.759 264.688 205.544 264.896C205.401 265.033 205.231 265.16 205.036 265.277C204.841 265.388 204.626 265.486 204.391 265.57L204.489 265.59C204.841 265.674 205.147 265.795 205.407 265.951C205.674 266.101 205.902 266.277 206.091 266.479C206.279 266.693 206.419 266.928 206.511 267.182C206.608 267.436 206.657 267.706 206.657 267.992C206.657 268.493 206.559 268.933 206.364 269.311C206.175 269.682 205.902 269.991 205.544 270.238C205.186 270.492 204.746 270.684 204.225 270.814C203.711 270.938 203.125 271 202.468 271H197.507ZM199.841 266.498V269.135H202.468C202.793 269.135 203.073 269.105 203.307 269.047C203.548 268.982 203.744 268.894 203.893 268.783C204.037 268.673 204.144 268.536 204.216 268.373C204.287 268.21 204.323 268.025 204.323 267.816C204.323 267.615 204.287 267.436 204.216 267.279C204.144 267.117 204.037 266.98 203.893 266.869C203.744 266.752 203.548 266.661 203.307 266.596C203.073 266.531 202.793 266.498 202.468 266.498H199.841ZM199.841 264.818H201.882C202.246 264.818 202.562 264.789 202.829 264.73C203.096 264.665 203.311 264.568 203.473 264.438C203.604 264.34 203.701 264.223 203.766 264.086C203.832 263.949 203.864 263.79 203.864 263.607C203.864 263.393 203.822 263.207 203.737 263.051C203.659 262.888 203.535 262.751 203.366 262.641C203.203 262.53 202.988 262.449 202.721 262.396C202.455 262.338 202.145 262.309 201.794 262.309H199.841V264.818Z" fill="#4C4C4C"/>
<path d="M225.388 269.32C225.681 269.32 225.961 269.278 226.228 269.193C226.502 269.102 226.742 268.975 226.951 268.812C227.153 268.65 227.312 268.458 227.429 268.236C227.553 268.015 227.615 267.771 227.615 267.504H229.812C229.819 268.018 229.701 268.503 229.461 268.959C229.226 269.408 228.907 269.796 228.504 270.121C228.093 270.46 227.621 270.727 227.087 270.922C226.56 271.111 226.004 271.205 225.418 271.205C224.604 271.205 223.891 271.065 223.279 270.785C222.673 270.499 222.169 270.115 221.765 269.633C221.355 269.151 221.046 268.591 220.837 267.953C220.629 267.309 220.525 266.622 220.525 265.893V265.551C220.525 264.828 220.626 264.145 220.828 263.5C221.036 262.855 221.345 262.292 221.755 261.811C222.166 261.329 222.673 260.948 223.279 260.668C223.891 260.382 224.601 260.238 225.408 260.238C226.046 260.238 226.635 260.336 227.175 260.531C227.722 260.727 228.191 261 228.582 261.352C228.972 261.703 229.275 262.123 229.49 262.611C229.711 263.1 229.819 263.637 229.812 264.223H227.615C227.615 263.936 227.559 263.666 227.449 263.412C227.345 263.158 227.195 262.937 227 262.748C226.798 262.559 226.557 262.41 226.277 262.299C226.004 262.188 225.707 262.133 225.388 262.133C224.9 262.133 224.493 262.234 224.168 262.436C223.849 262.631 223.595 262.888 223.406 263.207C223.204 263.526 223.061 263.891 222.976 264.301C222.898 264.711 222.859 265.128 222.859 265.551V265.893C222.859 266.322 222.898 266.745 222.976 267.162C223.061 267.572 223.201 267.934 223.396 268.246C223.585 268.572 223.842 268.832 224.168 269.027C224.493 269.223 224.9 269.32 225.388 269.32Z" fill="#4C4C4C"/>
<path d="M239.051 260.434H241.385V271H239.051V263.822L234.578 271H232.244V260.434H234.578V267.621L239.051 260.434Z" fill="#4C4C4C"/>
<path d="M248.426 268.119L250.233 260.434H253.153V271H250.995V264.848L249.217 271H247.625L245.848 264.838V271H243.7V260.434H246.639L248.426 268.119Z" fill="#4C4C4C"/>
<path d="M256.952 275.268C256.724 275.268 256.506 275.248 256.298 275.209C256.096 275.176 255.901 275.137 255.712 275.092L256.034 273.266C256.164 273.272 256.311 273.279 256.473 273.285C256.643 273.298 256.779 273.305 256.884 273.305C257.111 273.305 257.317 273.236 257.499 273.1C257.681 272.969 257.841 272.82 257.977 272.65C258.108 272.481 258.212 272.331 258.29 272.201C258.374 272.071 258.453 271.934 258.524 271.791L259.188 270.531L254.686 260.434H257.255L259.882 266.889L260.243 268.051L260.682 266.918L263.231 260.434H265.819L260.458 272.602C260.334 272.875 260.178 273.165 259.989 273.471C259.807 273.783 259.576 274.07 259.296 274.33C259.016 274.597 258.684 274.818 258.3 274.994C257.916 275.176 257.466 275.268 256.952 275.268Z" fill="#4C4C4C"/>
<path d="M276.21 260.434V271H273.866V262.338H270.575L270.566 264.945C270.566 265.303 270.556 265.652 270.536 265.99C270.523 266.329 270.501 266.648 270.468 266.947C270.403 267.455 270.308 267.921 270.185 268.344C270.068 268.76 269.915 269.128 269.726 269.447C269.42 269.962 269.016 270.349 268.515 270.609C268.014 270.87 267.392 271 266.65 271H266.152V269.027L266.503 269.018C266.861 269.018 267.151 268.939 267.372 268.783C267.6 268.627 267.779 268.383 267.909 268.051C267.974 267.868 268.03 267.657 268.075 267.416C268.121 267.175 268.154 266.908 268.173 266.615C268.193 266.374 268.206 266.117 268.212 265.844C268.219 265.564 268.222 265.264 268.222 264.945L268.232 260.434H276.21Z" fill="#4C4C4C"/>
<path d="M287.929 260.434V271H285.595V267.123H282.793L280.527 271H278.095L280.576 266.742C279.931 266.482 279.43 266.098 279.072 265.59C278.714 265.076 278.535 264.486 278.535 263.822C278.535 263.327 278.632 262.875 278.828 262.465C279.03 262.055 279.313 261.697 279.677 261.391C280.048 261.091 280.498 260.857 281.025 260.688C281.552 260.518 282.151 260.434 282.822 260.434H287.929ZM280.879 263.871C280.879 264.06 280.914 264.245 280.986 264.428C281.058 264.61 281.168 264.773 281.318 264.916C281.468 265.059 281.653 265.176 281.875 265.268C282.102 265.352 282.369 265.395 282.675 265.395H285.595V262.309H282.822C282.49 262.309 282.2 262.354 281.953 262.445C281.712 262.536 281.513 262.657 281.357 262.807C281.194 262.956 281.074 263.126 280.996 263.314C280.918 263.497 280.879 263.682 280.879 263.871Z" fill="#4C4C4C"/>
<path d="M300.459 262.309H296.328V271H293.984V262.309H289.902V260.434H300.459V262.309Z" fill="#4C4C4C"/>
<path d="M301.641 265.619C301.641 264.851 301.752 264.141 301.973 263.49C302.194 262.833 302.517 262.263 302.94 261.781C303.357 261.299 303.868 260.922 304.473 260.648C305.079 260.375 305.769 260.238 306.543 260.238C307.318 260.238 308.008 260.375 308.614 260.648C309.226 260.922 309.743 261.299 310.166 261.781C310.583 262.263 310.902 262.833 311.123 263.49C311.345 264.141 311.456 264.851 311.456 265.619V265.824C311.456 266.599 311.345 267.312 311.123 267.963C310.902 268.614 310.583 269.18 310.166 269.662C309.75 270.144 309.235 270.521 308.623 270.795C308.018 271.068 307.331 271.205 306.563 271.205C305.788 271.205 305.095 271.068 304.483 270.795C303.871 270.521 303.357 270.144 302.94 269.662C302.517 269.18 302.194 268.614 301.973 267.963C301.752 267.312 301.641 266.599 301.641 265.824V265.619ZM303.975 265.824C303.975 266.299 304.024 266.749 304.122 267.172C304.226 267.595 304.385 267.966 304.6 268.285C304.808 268.604 305.075 268.858 305.401 269.047C305.726 269.229 306.114 269.32 306.563 269.32C306.999 269.32 307.38 269.229 307.706 269.047C308.031 268.858 308.298 268.604 308.506 268.285C308.715 267.966 308.868 267.595 308.965 267.172C309.069 266.749 309.122 266.299 309.122 265.824V265.619C309.122 265.157 309.069 264.714 308.965 264.291C308.861 263.868 308.708 263.497 308.506 263.178C308.291 262.859 308.021 262.605 307.696 262.416C307.377 262.227 306.993 262.133 306.543 262.133C306.101 262.133 305.717 262.227 305.391 262.416C305.072 262.605 304.808 262.859 304.6 263.178C304.385 263.497 304.226 263.868 304.122 264.291C304.024 264.714 303.975 265.157 303.975 265.619V265.824Z" fill="#4C4C4C"/>
<path d="M313.702 275.062V260.434H315.85L315.938 261.518C316.082 261.342 316.238 261.182 316.407 261.039C316.576 260.896 316.759 260.772 316.954 260.668C317.208 260.531 317.488 260.427 317.794 260.355C318.1 260.277 318.425 260.238 318.77 260.238C319.447 260.238 320.043 260.368 320.557 260.629C321.078 260.889 321.514 261.257 321.866 261.732C322.211 262.208 322.475 262.777 322.657 263.441C322.839 264.099 322.93 264.825 322.93 265.619V265.824C322.93 266.586 322.839 267.296 322.657 267.953C322.481 268.611 322.218 269.177 321.866 269.652C321.514 270.134 321.082 270.512 320.567 270.785C320.053 271.059 319.464 271.195 318.8 271.195C318.422 271.195 318.074 271.156 317.755 271.078C317.442 271 317.152 270.886 316.886 270.736C316.729 270.645 316.58 270.541 316.436 270.424C316.293 270.307 316.16 270.18 316.036 270.043V275.062H313.702ZM320.596 265.619C320.596 265.144 320.548 264.698 320.45 264.281C320.359 263.858 320.216 263.49 320.02 263.178C319.819 262.865 319.561 262.618 319.249 262.436C318.936 262.253 318.562 262.162 318.126 262.162C317.885 262.162 317.66 262.188 317.452 262.24C317.244 262.292 317.058 262.367 316.895 262.465C316.707 262.569 316.541 262.699 316.397 262.855C316.261 263.012 316.14 263.188 316.036 263.383V268.08C316.127 268.262 316.238 268.428 316.368 268.578C316.498 268.728 316.648 268.858 316.817 268.969C316.993 269.073 317.192 269.158 317.413 269.223C317.634 269.281 317.878 269.311 318.145 269.311C318.582 269.311 318.953 269.219 319.259 269.037C319.571 268.848 319.825 268.594 320.02 268.275C320.222 267.95 320.369 267.579 320.46 267.162C320.551 266.739 320.596 266.293 320.596 265.824V265.619Z" fill="#4C4C4C"/>
<path d="M330.226 271.195C329.445 271.195 328.728 271.065 328.077 270.805C327.433 270.544 326.879 270.183 326.417 269.721C325.955 269.265 325.597 268.728 325.343 268.109C325.096 267.484 324.972 266.811 324.972 266.088V265.688C324.972 264.861 325.102 264.112 325.362 263.441C325.623 262.771 325.981 262.198 326.437 261.723C326.892 261.247 327.42 260.883 328.019 260.629C328.624 260.368 329.269 260.238 329.952 260.238C330.714 260.238 331.388 260.368 331.974 260.629C332.56 260.883 333.051 261.238 333.448 261.693C333.846 262.156 334.145 262.706 334.347 263.344C334.549 263.982 334.65 264.678 334.65 265.434V266.439H327.325V266.488C327.397 266.951 327.508 267.338 327.657 267.65C327.807 267.963 328.012 268.243 328.273 268.49C328.533 268.751 328.839 268.952 329.191 269.096C329.549 269.239 329.939 269.311 330.362 269.311C330.942 269.311 331.482 269.2 331.984 268.979C332.485 268.751 332.898 268.428 333.224 268.012L334.474 269.223C334.122 269.73 333.582 270.186 332.853 270.59C332.13 270.993 331.254 271.195 330.226 271.195ZM329.943 262.133C329.611 262.133 329.301 262.195 329.015 262.318C328.735 262.436 328.484 262.605 328.263 262.826C328.042 263.054 327.856 263.327 327.706 263.646C327.556 263.965 327.446 264.327 327.374 264.73H332.345V264.574C332.345 264.268 332.29 263.965 332.179 263.666C332.068 263.36 331.912 263.093 331.71 262.865C331.515 262.644 331.267 262.468 330.968 262.338C330.675 262.201 330.333 262.133 329.943 262.133Z" fill="#4C4C4C"/>
<path d="M45.2066 295.32C45.4996 295.32 45.7796 295.278 46.0465 295.193C46.3199 295.102 46.5608 294.975 46.7691 294.812C46.971 294.65 47.1305 294.458 47.2477 294.236C47.3713 294.015 47.4332 293.771 47.4332 293.504H49.6305C49.637 294.018 49.5198 294.503 49.2789 294.959C49.0445 295.408 48.7255 295.796 48.3219 296.121C47.9117 296.46 47.4397 296.727 46.9059 296.922C46.3785 297.111 45.8219 297.205 45.2359 297.205C44.4221 297.205 43.7092 297.065 43.0973 296.785C42.4918 296.499 41.9872 296.115 41.5836 295.633C41.1734 295.151 40.8642 294.591 40.6559 293.953C40.4475 293.309 40.3434 292.622 40.3434 291.893V291.551C40.3434 290.828 40.4443 290.145 40.6461 289.5C40.8544 288.855 41.1637 288.292 41.5738 287.811C41.984 287.329 42.4918 286.948 43.0973 286.668C43.7092 286.382 44.4189 286.238 45.2262 286.238C45.8642 286.238 46.4534 286.336 46.9937 286.531C47.5406 286.727 48.0094 287 48.4 287.352C48.7906 287.703 49.0934 288.123 49.3082 288.611C49.5296 289.1 49.637 289.637 49.6305 290.223H47.4332C47.4332 289.936 47.3779 289.666 47.2672 289.412C47.163 289.158 47.0133 288.937 46.818 288.748C46.6161 288.559 46.3753 288.41 46.0953 288.299C45.8219 288.188 45.5256 288.133 45.2066 288.133C44.7184 288.133 44.3115 288.234 43.9859 288.436C43.6669 288.631 43.413 288.888 43.2242 289.207C43.0224 289.526 42.8792 289.891 42.7945 290.301C42.7164 290.711 42.6773 291.128 42.6773 291.551V291.893C42.6773 292.322 42.7164 292.745 42.7945 293.162C42.8792 293.572 43.0191 293.934 43.2144 294.246C43.4032 294.572 43.6604 294.832 43.9859 295.027C44.3115 295.223 44.7184 295.32 45.2066 295.32Z" fill="#4C4C4C"/>
<path d="M62.2187 288.309H58.0879V297H55.7441V288.309H51.6621V286.434H62.2187V288.309Z" fill="#4C4C4C"/>
<path d="M63.4008 291.619C63.4008 290.851 63.5114 290.141 63.7328 289.49C63.9542 288.833 64.2764 288.263 64.6996 287.781C65.1163 287.299 65.6273 286.922 66.2328 286.648C66.8383 286.375 67.5284 286.238 68.3031 286.238C69.0779 286.238 69.768 286.375 70.3734 286.648C70.9854 286.922 71.503 287.299 71.9262 287.781C72.3428 288.263 72.6618 288.833 72.8832 289.49C73.1045 290.141 73.2152 290.851 73.2152 291.619V291.824C73.2152 292.599 73.1045 293.312 72.8832 293.963C72.6618 294.614 72.3428 295.18 71.9262 295.662C71.5095 296.144 70.9952 296.521 70.3832 296.795C69.7777 297.068 69.0909 297.205 68.3226 297.205C67.5479 297.205 66.8545 297.068 66.2426 296.795C65.6306 296.521 65.1163 296.144 64.6996 295.662C64.2764 295.18 63.9542 294.614 63.7328 293.963C63.5114 293.312 63.4008 292.599 63.4008 291.824V291.619ZM65.7348 291.824C65.7348 292.299 65.7836 292.749 65.8812 293.172C65.9854 293.595 66.1449 293.966 66.3598 294.285C66.5681 294.604 66.835 294.858 67.1605 295.047C67.4861 295.229 67.8734 295.32 68.3226 295.32C68.7588 295.32 69.1397 295.229 69.4652 295.047C69.7907 294.858 70.0577 294.604 70.266 294.285C70.4743 293.966 70.6273 293.595 70.725 293.172C70.8292 292.749 70.8812 292.299 70.8812 291.824V291.619C70.8812 291.157 70.8292 290.714 70.725 290.291C70.6208 289.868 70.4678 289.497 70.266 289.178C70.0512 288.859 69.781 288.605 69.4555 288.416C69.1364 288.227 68.7523 288.133 68.3031 288.133C67.8604 288.133 67.4763 288.227 67.1508 288.416C66.8318 288.605 66.5681 288.859 66.3598 289.178C66.1449 289.497 65.9854 289.868 65.8812 290.291C65.7836 290.714 65.7348 291.157 65.7348 291.619V291.824Z" fill="#4C4C4C"/>
<path d="M79.8562 294.119L81.6629 286.434H84.5828V297H82.4246V290.848L80.6473 297H79.0555L77.2781 290.838V297H75.1297V286.434H78.0691L79.8562 294.119Z" fill="#4C4C4C"/>
<path d="M93.8019 297C93.7303 296.87 93.6717 296.714 93.6262 296.531C93.5871 296.342 93.5513 296.147 93.5187 295.945C93.356 296.115 93.1704 296.277 92.9621 296.434C92.7603 296.583 92.5324 296.714 92.2785 296.824C92.0246 296.941 91.7512 297.033 91.4582 297.098C91.1652 297.163 90.8495 297.195 90.5109 297.195C89.9641 297.195 89.4628 297.117 89.007 296.961C88.5578 296.798 88.1737 296.577 87.8547 296.297C87.5292 296.023 87.2753 295.695 87.093 295.311C86.9172 294.92 86.8293 294.5 86.8293 294.051C86.8293 293.471 86.9432 292.96 87.1711 292.518C87.4055 292.068 87.744 291.697 88.1867 291.404C88.5969 291.131 89.1014 290.923 89.7004 290.779C90.3059 290.636 90.9894 290.564 91.7512 290.564H93.4504V289.852C93.4504 289.578 93.4016 289.331 93.3039 289.109C93.2128 288.888 93.0793 288.696 92.9035 288.533C92.7147 288.37 92.4836 288.247 92.2102 288.162C91.9432 288.071 91.634 288.025 91.2824 288.025C90.9634 288.025 90.6835 288.064 90.4426 288.143C90.2082 288.221 90.0129 288.328 89.8566 288.465C89.7004 288.589 89.5832 288.742 89.5051 288.924C89.4335 289.1 89.3977 289.288 89.3977 289.49H87.0539C87.0604 289.067 87.1613 288.66 87.3566 288.27C87.5519 287.879 87.8384 287.534 88.216 287.234C88.5806 286.928 89.0298 286.688 89.5637 286.512C90.104 286.329 90.7193 286.238 91.4094 286.238C92.0279 286.238 92.604 286.316 93.1379 286.473C93.6783 286.622 94.1437 286.847 94.5344 287.146C94.925 287.446 95.231 287.827 95.4523 288.289C95.6737 288.745 95.7844 289.272 95.7844 289.871V294.568C95.7844 295.044 95.8169 295.473 95.882 295.857C95.9536 296.235 96.0546 296.561 96.1848 296.834V297H93.8019ZM90.9602 295.32C91.2661 295.32 91.5493 295.281 91.8098 295.203C92.0767 295.125 92.3176 295.024 92.5324 294.9C92.7473 294.777 92.9328 294.637 93.0891 294.48C93.2453 294.324 93.3658 294.161 93.4504 293.992V292.039H91.9465C91.4387 292.039 90.9992 292.088 90.6281 292.186C90.257 292.277 89.9608 292.41 89.7394 292.586C89.5441 292.736 89.3977 292.915 89.3 293.123C89.2088 293.331 89.1633 293.566 89.1633 293.826C89.1633 294.041 89.2023 294.243 89.2805 294.432C89.3586 294.614 89.4725 294.77 89.6223 294.9C89.772 295.031 89.9575 295.135 90.1789 295.213C90.4003 295.285 90.6607 295.32 90.9602 295.32Z" fill="#4C4C4C"/>
<path d="M108.666 288.309H104.535V297H102.191V288.309H98.109V286.434H108.666V288.309Z" fill="#4C4C4C"/>
<path d="M109.848 291.619C109.848 290.851 109.958 290.141 110.18 289.49C110.401 288.833 110.723 288.263 111.146 287.781C111.563 287.299 112.074 286.922 112.68 286.648C113.285 286.375 113.975 286.238 114.75 286.238C115.525 286.238 116.215 286.375 116.82 286.648C117.432 286.922 117.95 287.299 118.373 287.781C118.79 288.263 119.109 288.833 119.33 289.49C119.551 290.141 119.662 290.851 119.662 291.619V291.824C119.662 292.599 119.551 293.312 119.33 293.963C119.109 294.614 118.79 295.18 118.373 295.662C117.956 296.144 117.442 296.521 116.83 296.795C116.225 297.068 115.538 297.205 114.77 297.205C113.995 297.205 113.301 297.068 112.689 296.795C112.077 296.521 111.563 296.144 111.146 295.662C110.723 295.18 110.401 294.614 110.18 293.963C109.958 293.312 109.848 292.599 109.848 291.824V291.619ZM112.182 291.824C112.182 292.299 112.23 292.749 112.328 293.172C112.432 293.595 112.592 293.966 112.807 294.285C113.015 294.604 113.282 294.858 113.607 295.047C113.933 295.229 114.32 295.32 114.77 295.32C115.206 295.32 115.587 295.229 115.912 295.047C116.238 294.858 116.505 294.604 116.713 294.285C116.921 293.966 117.074 293.595 117.172 293.172C117.276 292.749 117.328 292.299 117.328 291.824V291.619C117.328 291.157 117.276 290.714 117.172 290.291C117.068 289.868 116.915 289.497 116.713 289.178C116.498 288.859 116.228 288.605 115.902 288.416C115.583 288.227 115.199 288.133 114.75 288.133C114.307 288.133 113.923 288.227 113.598 288.416C113.279 288.605 113.015 288.859 112.807 289.178C112.592 289.497 112.432 289.868 112.328 290.291C112.23 290.714 112.182 291.157 112.182 291.619V291.824Z" fill="#4C4C4C"/>
<path d="M130.864 286.434V297H128.52V288.338H125.229L125.219 290.945C125.219 291.303 125.209 291.652 125.19 291.99C125.177 292.329 125.154 292.648 125.121 292.947C125.056 293.455 124.962 293.921 124.838 294.344C124.721 294.76 124.568 295.128 124.379 295.447C124.073 295.962 123.67 296.349 123.168 296.609C122.667 296.87 122.045 297 121.303 297H120.805V295.027L121.157 295.018C121.515 295.018 121.804 294.939 122.026 294.783C122.254 294.627 122.433 294.383 122.563 294.051C122.628 293.868 122.683 293.657 122.729 293.416C122.774 293.175 122.807 292.908 122.827 292.615C122.846 292.374 122.859 292.117 122.866 291.844C122.872 291.564 122.875 291.264 122.875 290.945L122.885 286.434H130.864Z" fill="#4C4C4C"/>
<path d="M133.071 291.619C133.071 290.851 133.182 290.141 133.403 289.49C133.624 288.833 133.947 288.263 134.37 287.781C134.787 287.299 135.298 286.922 135.903 286.648C136.509 286.375 137.199 286.238 137.973 286.238C138.748 286.238 139.438 286.375 140.044 286.648C140.656 286.922 141.173 287.299 141.596 287.781C142.013 288.263 142.332 288.833 142.554 289.49C142.775 290.141 142.886 290.851 142.886 291.619V291.824C142.886 292.599 142.775 293.312 142.554 293.963C142.332 294.614 142.013 295.18 141.596 295.662C141.18 296.144 140.665 296.521 140.054 296.795C139.448 297.068 138.761 297.205 137.993 297.205C137.218 297.205 136.525 297.068 135.913 296.795C135.301 296.521 134.787 296.144 134.37 295.662C133.947 295.18 133.624 294.614 133.403 293.963C133.182 293.312 133.071 292.599 133.071 291.824V291.619ZM135.405 291.824C135.405 292.299 135.454 292.749 135.552 293.172C135.656 293.595 135.815 293.966 136.03 294.285C136.238 294.604 136.505 294.858 136.831 295.047C137.156 295.229 137.544 295.32 137.993 295.32C138.429 295.32 138.81 295.229 139.136 295.047C139.461 294.858 139.728 294.604 139.936 294.285C140.145 293.966 140.298 293.595 140.395 293.172C140.499 292.749 140.552 292.299 140.552 291.824V291.619C140.552 291.157 140.499 290.714 140.395 290.291C140.291 289.868 140.138 289.497 139.936 289.178C139.721 288.859 139.451 288.605 139.126 288.416C138.807 288.227 138.423 288.133 137.973 288.133C137.531 288.133 137.147 288.227 136.821 288.416C136.502 288.605 136.238 288.859 136.03 289.178C135.815 289.497 135.656 289.868 135.552 290.291C135.454 290.714 135.405 291.157 135.405 291.619V291.824Z" fill="#4C4C4C"/>
<path d="M154.058 288.338H147.495V297H145.161V286.434H154.058V288.338Z" fill="#4C4C4C"/>
<path d="M163.472 297C163.401 296.87 163.342 296.714 163.296 296.531C163.257 296.342 163.222 296.147 163.189 295.945C163.026 296.115 162.841 296.277 162.632 296.434C162.431 296.583 162.203 296.714 161.949 296.824C161.695 296.941 161.421 297.033 161.129 297.098C160.836 297.163 160.52 297.195 160.181 297.195C159.634 297.195 159.133 297.117 158.677 296.961C158.228 296.798 157.844 296.577 157.525 296.297C157.199 296.023 156.946 295.695 156.763 295.311C156.587 294.92 156.5 294.5 156.5 294.051C156.5 293.471 156.614 292.96 156.841 292.518C157.076 292.068 157.414 291.697 157.857 291.404C158.267 291.131 158.772 290.923 159.371 290.779C159.976 290.636 160.66 290.564 161.421 290.564H163.121V289.852C163.121 289.578 163.072 289.331 162.974 289.109C162.883 288.888 162.75 288.696 162.574 288.533C162.385 288.37 162.154 288.247 161.88 288.162C161.614 288.071 161.304 288.025 160.953 288.025C160.634 288.025 160.354 288.064 160.113 288.143C159.879 288.221 159.683 288.328 159.527 288.465C159.371 288.589 159.254 288.742 159.175 288.924C159.104 289.1 159.068 289.288 159.068 289.49H156.724C156.731 289.067 156.832 288.66 157.027 288.27C157.222 287.879 157.509 287.534 157.886 287.234C158.251 286.928 158.7 286.688 159.234 286.512C159.774 286.329 160.39 286.238 161.08 286.238C161.698 286.238 162.274 286.316 162.808 286.473C163.349 286.622 163.814 286.847 164.205 287.146C164.595 287.446 164.901 287.827 165.123 288.289C165.344 288.745 165.455 289.272 165.455 289.871V294.568C165.455 295.044 165.487 295.473 165.552 295.857C165.624 296.235 165.725 296.561 165.855 296.834V297H163.472ZM160.63 295.32C160.936 295.32 161.22 295.281 161.48 295.203C161.747 295.125 161.988 295.024 162.203 294.9C162.418 294.777 162.603 294.637 162.759 294.48C162.916 294.324 163.036 294.161 163.121 293.992V292.039H161.617C161.109 292.039 160.67 292.088 160.298 292.186C159.927 292.277 159.631 292.41 159.41 292.586C159.214 292.736 159.068 292.915 158.97 293.123C158.879 293.331 158.834 293.566 158.834 293.826C158.834 294.041 158.873 294.243 158.951 294.432C159.029 294.614 159.143 294.77 159.293 294.9C159.442 295.031 159.628 295.135 159.849 295.213C160.071 295.285 160.331 295.32 160.63 295.32Z" fill="#4C4C4C"/>
<path d="M177.174 291.697H169.312V289.803H177.174V291.697Z" fill="#4C4C4C"/>
<path d="M189.948 288.309H185.817V297H183.473V288.309H179.391V286.434H189.948V288.309Z" fill="#4C4C4C"/>
<path d="M196.491 297.195C195.71 297.195 194.994 297.065 194.343 296.805C193.698 296.544 193.145 296.183 192.682 295.721C192.22 295.265 191.862 294.728 191.608 294.109C191.361 293.484 191.237 292.811 191.237 292.088V291.688C191.237 290.861 191.367 290.112 191.628 289.441C191.888 288.771 192.246 288.198 192.702 287.723C193.158 287.247 193.685 286.883 194.284 286.629C194.889 286.368 195.534 286.238 196.218 286.238C196.979 286.238 197.653 286.368 198.239 286.629C198.825 286.883 199.317 287.238 199.714 287.693C200.111 288.156 200.41 288.706 200.612 289.344C200.814 289.982 200.915 290.678 200.915 291.434V292.439H193.591V292.488C193.662 292.951 193.773 293.338 193.923 293.65C194.072 293.963 194.277 294.243 194.538 294.49C194.798 294.751 195.104 294.952 195.456 295.096C195.814 295.239 196.205 295.311 196.628 295.311C197.207 295.311 197.748 295.2 198.249 294.979C198.75 294.751 199.164 294.428 199.489 294.012L200.739 295.223C200.387 295.73 199.847 296.186 199.118 296.59C198.395 296.993 197.52 297.195 196.491 297.195ZM196.208 288.133C195.876 288.133 195.567 288.195 195.28 288.318C195 288.436 194.749 288.605 194.528 288.826C194.307 289.054 194.121 289.327 193.971 289.646C193.822 289.965 193.711 290.327 193.639 290.73H198.61V290.574C198.61 290.268 198.555 289.965 198.444 289.666C198.333 289.36 198.177 289.093 197.975 288.865C197.78 288.644 197.533 288.468 197.233 288.338C196.94 288.201 196.598 288.133 196.208 288.133Z" fill="#4C4C4C"/>
<path d="M203.191 301.062V286.434H205.339L205.427 287.518C205.57 287.342 205.726 287.182 205.896 287.039C206.065 286.896 206.247 286.772 206.443 286.668C206.696 286.531 206.976 286.427 207.282 286.355C207.588 286.277 207.914 286.238 208.259 286.238C208.936 286.238 209.532 286.368 210.046 286.629C210.567 286.889 211.003 287.257 211.355 287.732C211.7 288.208 211.963 288.777 212.146 289.441C212.328 290.099 212.419 290.825 212.419 291.619V291.824C212.419 292.586 212.328 293.296 212.146 293.953C211.97 294.611 211.706 295.177 211.355 295.652C211.003 296.134 210.57 296.512 210.056 296.785C209.542 297.059 208.952 297.195 208.288 297.195C207.911 297.195 207.562 297.156 207.243 297.078C206.931 297 206.641 296.886 206.374 296.736C206.218 296.645 206.068 296.541 205.925 296.424C205.782 296.307 205.648 296.18 205.525 296.043V301.062H203.191ZM210.085 291.619C210.085 291.144 210.036 290.698 209.939 290.281C209.848 289.858 209.704 289.49 209.509 289.178C209.307 288.865 209.05 288.618 208.737 288.436C208.425 288.253 208.051 288.162 207.614 288.162C207.374 288.162 207.149 288.188 206.941 288.24C206.732 288.292 206.547 288.367 206.384 288.465C206.195 288.569 206.029 288.699 205.886 288.855C205.749 289.012 205.629 289.188 205.525 289.383V294.08C205.616 294.262 205.726 294.428 205.857 294.578C205.987 294.728 206.137 294.858 206.306 294.969C206.482 295.073 206.68 295.158 206.902 295.223C207.123 295.281 207.367 295.311 207.634 295.311C208.07 295.311 208.441 295.219 208.747 295.037C209.06 294.848 209.314 294.594 209.509 294.275C209.711 293.95 209.857 293.579 209.948 293.162C210.04 292.739 210.085 292.293 210.085 291.824V291.619Z" fill="#4C4C4C"/>
<path d="M221.531 297C221.459 296.87 221.401 296.714 221.355 296.531C221.316 296.342 221.28 296.147 221.248 295.945C221.085 296.115 220.899 296.277 220.691 296.434C220.489 296.583 220.261 296.714 220.007 296.824C219.754 296.941 219.48 297.033 219.187 297.098C218.894 297.163 218.578 297.195 218.24 297.195C217.693 297.195 217.192 297.117 216.736 296.961C216.287 296.798 215.903 296.577 215.584 296.297C215.258 296.023 215.004 295.695 214.822 295.311C214.646 294.92 214.558 294.5 214.558 294.051C214.558 293.471 214.672 292.96 214.9 292.518C215.134 292.068 215.473 291.697 215.916 291.404C216.326 291.131 216.83 290.923 217.429 290.779C218.035 290.636 218.718 290.564 219.48 290.564H221.179V289.852C221.179 289.578 221.13 289.331 221.033 289.109C220.942 288.888 220.808 288.696 220.632 288.533C220.444 288.37 220.212 288.247 219.939 288.162C219.672 288.071 219.363 288.025 219.011 288.025C218.692 288.025 218.412 288.064 218.171 288.143C217.937 288.221 217.742 288.328 217.586 288.465C217.429 288.589 217.312 288.742 217.234 288.924C217.162 289.1 217.127 289.288 217.127 289.49H214.783C214.789 289.067 214.89 288.66 215.086 288.27C215.281 287.879 215.567 287.534 215.945 287.234C216.309 286.928 216.759 286.688 217.293 286.512C217.833 286.329 218.448 286.238 219.138 286.238C219.757 286.238 220.333 286.316 220.867 286.473C221.407 286.622 221.873 286.847 222.263 287.146C222.654 287.446 222.96 287.827 223.181 288.289C223.403 288.745 223.513 289.272 223.513 289.871V294.568C223.513 295.044 223.546 295.473 223.611 295.857C223.683 296.235 223.783 296.561 223.914 296.834V297H221.531ZM218.689 295.32C218.995 295.32 219.278 295.281 219.539 295.203C219.806 295.125 220.046 295.024 220.261 294.9C220.476 294.777 220.662 294.637 220.818 294.48C220.974 294.324 221.095 294.161 221.179 293.992V292.039H219.675C219.168 292.039 218.728 292.088 218.357 292.186C217.986 292.277 217.69 292.41 217.468 292.586C217.273 292.736 217.127 292.915 217.029 293.123C216.938 293.331 216.892 293.566 216.892 293.826C216.892 294.041 216.931 294.243 217.009 294.432C217.087 294.614 217.201 294.77 217.351 294.9C217.501 295.031 217.686 295.135 217.908 295.213C218.129 295.285 218.39 295.32 218.689 295.32Z" fill="#4C4C4C"/>
<path d="M235.379 297H233.045V288.338H228.582V297H226.238V286.434H235.379V297Z" fill="#4C4C4C"/>
<path d="M242.938 297.195C242.157 297.195 241.44 297.065 240.789 296.805C240.145 296.544 239.592 296.183 239.129 295.721C238.667 295.265 238.309 294.728 238.055 294.109C237.808 293.484 237.684 292.811 237.684 292.088V291.688C237.684 290.861 237.814 290.112 238.075 289.441C238.335 288.771 238.693 288.198 239.149 287.723C239.605 287.247 240.132 286.883 240.731 286.629C241.336 286.368 241.981 286.238 242.664 286.238C243.426 286.238 244.1 286.368 244.686 286.629C245.272 286.883 245.763 287.238 246.161 287.693C246.558 288.156 246.857 288.706 247.059 289.344C247.261 289.982 247.362 290.678 247.362 291.434V292.439H240.037V292.488C240.109 292.951 240.22 293.338 240.37 293.65C240.519 293.963 240.724 294.243 240.985 294.49C241.245 294.751 241.551 294.952 241.903 295.096C242.261 295.239 242.651 295.311 243.075 295.311C243.654 295.311 244.194 295.2 244.696 294.979C245.197 294.751 245.61 294.428 245.936 294.012L247.186 295.223C246.834 295.73 246.294 296.186 245.565 296.59C244.842 296.993 243.967 297.195 242.938 297.195ZM242.655 288.133C242.323 288.133 242.013 288.195 241.727 288.318C241.447 288.436 241.196 288.605 240.975 288.826C240.754 289.054 240.568 289.327 240.418 289.646C240.269 289.965 240.158 290.327 240.086 290.73H245.057V290.574C245.057 290.268 245.002 289.965 244.891 289.666C244.78 289.36 244.624 289.093 244.422 288.865C244.227 288.644 243.98 288.468 243.68 288.338C243.387 288.201 243.045 288.133 242.655 288.133Z" fill="#4C4C4C"/>
<path d="M249.559 297V286.434H253.846C254.517 286.434 255.123 286.495 255.663 286.619C256.21 286.736 256.675 286.912 257.059 287.146C257.444 287.387 257.736 287.693 257.938 288.064C258.147 288.429 258.251 288.862 258.251 289.363C258.251 289.656 258.195 289.933 258.085 290.193C257.974 290.454 257.811 290.688 257.596 290.896C257.453 291.033 257.284 291.16 257.089 291.277C256.893 291.388 256.679 291.486 256.444 291.57L256.542 291.59C256.893 291.674 257.199 291.795 257.46 291.951C257.727 292.101 257.955 292.277 258.143 292.479C258.332 292.693 258.472 292.928 258.563 293.182C258.661 293.436 258.71 293.706 258.71 293.992C258.71 294.493 258.612 294.933 258.417 295.311C258.228 295.682 257.955 295.991 257.596 296.238C257.238 296.492 256.799 296.684 256.278 296.814C255.764 296.938 255.178 297 254.52 297H249.559ZM251.893 292.498V295.135H254.52C254.846 295.135 255.126 295.105 255.36 295.047C255.601 294.982 255.796 294.894 255.946 294.783C256.089 294.673 256.197 294.536 256.268 294.373C256.34 294.21 256.376 294.025 256.376 293.816C256.376 293.615 256.34 293.436 256.268 293.279C256.197 293.117 256.089 292.98 255.946 292.869C255.796 292.752 255.601 292.661 255.36 292.596C255.126 292.531 254.846 292.498 254.52 292.498H251.893ZM251.893 290.818H253.934C254.299 290.818 254.615 290.789 254.882 290.73C255.149 290.665 255.363 290.568 255.526 290.438C255.656 290.34 255.754 290.223 255.819 290.086C255.884 289.949 255.917 289.79 255.917 289.607C255.917 289.393 255.874 289.207 255.79 289.051C255.712 288.888 255.588 288.751 255.419 288.641C255.256 288.53 255.041 288.449 254.774 288.396C254.507 288.338 254.198 288.309 253.846 288.309H251.893V290.818Z" fill="#4C4C4C"/>
<path d="M271.23 288.309H267.099V297H264.755V288.309H260.673V286.434H271.23V288.309Z" fill="#4C4C4C"/>
<path d="M279.589 297C279.518 296.87 279.459 296.714 279.414 296.531C279.375 296.342 279.339 296.147 279.306 295.945C279.144 296.115 278.958 296.277 278.75 296.434C278.548 296.583 278.32 296.714 278.066 296.824C277.812 296.941 277.539 297.033 277.246 297.098C276.953 297.163 276.637 297.195 276.298 297.195C275.752 297.195 275.25 297.117 274.795 296.961C274.345 296.798 273.961 296.577 273.642 296.297C273.317 296.023 273.063 295.695 272.88 295.311C272.705 294.92 272.617 294.5 272.617 294.051C272.617 293.471 272.731 292.96 272.959 292.518C273.193 292.068 273.532 291.697 273.974 291.404C274.384 291.131 274.889 290.923 275.488 290.779C276.093 290.636 276.777 290.564 277.539 290.564H279.238V289.852C279.238 289.578 279.189 289.331 279.091 289.109C279 288.888 278.867 288.696 278.691 288.533C278.502 288.37 278.271 288.247 277.998 288.162C277.731 288.071 277.422 288.025 277.07 288.025C276.751 288.025 276.471 288.064 276.23 288.143C275.996 288.221 275.8 288.328 275.644 288.465C275.488 288.589 275.371 288.742 275.293 288.924C275.221 289.1 275.185 289.288 275.185 289.49H272.841C272.848 289.067 272.949 288.66 273.144 288.27C273.339 287.879 273.626 287.534 274.004 287.234C274.368 286.928 274.817 286.688 275.351 286.512C275.892 286.329 276.507 286.238 277.197 286.238C277.815 286.238 278.392 286.316 278.925 286.473C279.466 286.622 279.931 286.847 280.322 287.146C280.713 287.446 281.019 287.827 281.24 288.289C281.461 288.745 281.572 289.272 281.572 289.871V294.568C281.572 295.044 281.604 295.473 281.67 295.857C281.741 296.235 281.842 296.561 281.972 296.834V297H279.589ZM276.748 295.32C277.054 295.32 277.337 295.281 277.597 295.203C277.864 295.125 278.105 295.024 278.32 294.9C278.535 294.777 278.72 294.637 278.877 294.48C279.033 294.324 279.153 294.161 279.238 293.992V292.039H277.734C277.226 292.039 276.787 292.088 276.416 292.186C276.045 292.277 275.748 292.41 275.527 292.586C275.332 292.736 275.185 292.915 275.088 293.123C274.996 293.331 274.951 293.566 274.951 293.826C274.951 294.041 274.99 294.243 275.068 294.432C275.146 294.614 275.26 294.77 275.41 294.9C275.56 295.031 275.745 295.135 275.966 295.213C276.188 295.285 276.448 295.32 276.748 295.32Z" fill="#4C4C4C"/>
<path d="M289.971 292.186H287.773L287.676 282.781H290.059L289.971 292.186ZM287.49 295.828C287.49 295.451 287.611 295.135 287.852 294.881C288.092 294.627 288.434 294.5 288.877 294.5C289.313 294.5 289.655 294.627 289.902 294.881C290.15 295.135 290.273 295.451 290.273 295.828C290.273 296.199 290.15 296.508 289.902 296.756C289.655 297.003 289.313 297.127 288.877 297.127C288.434 297.127 288.092 297.003 287.852 296.756C287.611 296.508 287.49 296.199 287.49 295.828Z" fill="#4C4C4C"/>
</svg>
