<svg width="192" height="234" viewBox="0 0 192 234" fill="none" xmlns="http://www.w3.org/2000/svg">
<path d="M25.7174 154.141C33.0375 131.41 54.1893 116 78.0697 116H113.93C137.811 116 158.963 131.41 166.283 154.141L192 234H0L25.7174 154.141Z" fill="#FDC006"/>
<path d="M22.1759 234L30.5635 193.886C30.9027 192.264 32.4926 191.224 34.1143 191.563C35.7359 191.903 36.7756 193.492 36.4365 195.114L28.3059 234H22.1759Z" fill="#FF9B0B"/>
<path d="M153.324 234L144.937 193.886C144.597 192.264 143.007 191.224 141.386 191.563C139.764 191.903 138.724 193.492 139.063 195.114L147.194 234H153.324Z" fill="#FF9B0B"/>
<ellipse cx="96" cy="132.5" rx="36" ry="25.5" fill="#FF9913"/>
<ellipse cx="96.5" cy="129" rx="24.5" ry="19" fill="#EE9A6C"/>
<circle cx="49" cy="76" r="16" fill="#8D351A"/>
<circle cx="142" cy="76" r="16" fill="#8D351A"/>
<rect x="46" y="18" width="100" height="122" rx="50" fill="#FFA573"/>
<path d="M66.5 32C88.8675 32 107 50.1325 107 72.5V91.5C107 113.107 90.0792 130.76 68.7656 131.936C59.7177 126.047 52.693 117.313 48.9648 106.999C42.9059 106.98 38 102.063 38 96V90C38 84.9652 41.3834 80.7231 46 79.417V68C46 54.0597 51.7067 41.4538 60.9092 32.3857C62.7368 32.1334 64.603 32 66.5 32Z" fill="#FFC482"/>
<circle cx="139" cy="93" r="17" fill="#FFA573"/>
<rect x="38" y="79" width="22" height="28" rx="11" fill="#FFC482"/>
<rect x="62" y="81" width="20" height="20" rx="10" fill="#2C2C2C"/>
<rect x="109" y="81" width="20" height="20" rx="10" fill="#2C2C2C"/>
<circle cx="130.5" cy="51.5" r="15.5" fill="#9C3B1F"/>
<circle cx="109.5" cy="50.5" r="15.5" fill="#9C3B1F"/>
<circle cx="99.5" cy="48.5" r="15.5" fill="#9C3B1F"/>
<circle cx="81.5" cy="46.5" r="19.5" fill="#9C3B1F"/>
<circle cx="42" cy="63" r="16" fill="#9C3B1F"/>
<circle cx="57" cy="48" r="16" fill="#9C3B1F"/>
<circle cx="150.5" cy="60.5" r="15.5" fill="#9C3B1F"/>
<circle cx="93.5" cy="25.5" r="25.5" fill="#BA3F1E"/>
<circle cx="124" cy="26" r="17" fill="#BA3F1E"/>
<circle cx="143" cy="40" r="17" fill="#BA3F1E"/>
<circle cx="63.5" cy="26.5" r="16.5" fill="#BA3F1E"/>
<circle cx="45.5" cy="41.5" r="15.5" fill="#BA3F1E"/>
</svg>
