<svg width="125" height="210" viewBox="0 0 125 210" fill="none" xmlns="http://www.w3.org/2000/svg">
<path d="M16.9313 64.8493C16.9313 52.5613 26.8927 42.6 39.1807 42.6H102.751C115.039 42.6 125 52.5613 125 64.8493V187.751C125 200.039 115.039 210 102.751 210H39.1807C26.8927 210 16.9313 200.039 16.9313 187.751V64.8493Z" fill="#BDBDBD"/>
<path d="M23.2882 64.8493C23.2882 56.0722 30.4035 48.9569 39.1807 48.9569H102.751C111.528 48.9569 118.643 56.0722 118.643 64.8493V187.751C118.643 196.528 111.528 203.643 102.751 203.643H39.1807C30.4035 203.643 23.2882 196.528 23.2882 187.751V64.8493Z" fill="#8A8A8A"/>
<path d="M96.3746 49.9252C96.5894 48.1431 98.2082 46.8726 99.9903 47.0873C101.772 47.3021 103.043 48.921 102.828 50.7031L91.9385 141.054C91.7238 142.836 90.1049 144.106 88.3228 143.892C86.5407 143.677 85.2701 142.058 85.4849 140.276L96.3746 49.9252Z" fill="#515151"/>
<path d="M102.219 16.9574C102.311 16.1937 103.005 15.6491 103.768 15.7412C104.532 15.8333 105.077 16.527 104.985 17.2908L88.2612 156.044C88.1691 156.807 87.4754 157.352 86.7116 157.26C85.9478 157.168 85.4033 156.474 85.4953 155.71L102.219 16.9574Z" fill="#515151"/>
<path d="M122.609 0.297256C123.214 -0.177715 124.089 -0.0721802 124.564 0.532975C125.039 1.13813 124.934 2.01374 124.329 2.48872L104.605 17.9689C104 18.4439 103.125 18.3384 102.65 17.7332C102.175 17.128 102.28 16.2524 102.885 15.7775L122.609 0.297256Z" fill="#515151"/>
<path d="M91.1311 62.388C91.5914 58.5692 95.0603 55.8465 98.8792 56.3068C102.698 56.7671 105.421 60.236 104.96 64.0548L92.515 167.313C92.0547 171.131 88.5858 173.854 84.767 173.394C80.9482 172.934 78.2255 169.465 78.6858 165.646L91.1311 62.388Z" fill="#5C5C5C"/>
<path d="M27.0193 33.1745C26.7437 31.9284 27.5305 30.695 28.7765 30.4194C30.0225 30.1439 31.256 30.9306 31.5316 32.1766L58.9721 156.265C59.2477 157.511 58.461 158.744 57.2149 159.02C55.9689 159.295 54.7354 158.508 54.4598 157.262L27.0193 33.1745Z" fill="#515151"/>
<path d="M33.8823 85.6124C33.0557 81.8743 35.4159 78.1738 39.154 77.3472C42.8921 76.5206 46.5926 78.8808 47.4192 82.6189L69.7708 183.694C70.5975 187.432 68.2373 191.133 64.4991 191.959C60.761 192.786 57.0606 190.426 56.2339 186.688L33.8823 85.6124Z" fill="#5C5C5C"/>
<path d="M38.3653 15.9933C40.6799 26.46 34.0713 36.8213 23.6046 39.1358C13.1379 41.4504 2.77658 34.8418 0.461993 24.3751C-1.85259 13.9084 4.75602 3.54719 15.2227 1.23261C25.6895 -1.08196 36.0507 5.52663 38.3653 15.9933Z" fill="#515151"/>
<path d="M34.0049 15.5377C35.9888 24.5091 30.3243 33.3902 21.3528 35.3741C12.3814 37.358 3.50026 31.6935 1.51633 22.7221C-0.467597 13.7507 5.19693 4.86957 14.1684 2.88565C23.1399 0.901727 32.021 6.56623 34.0049 15.5377Z" fill="#B5B5B5"/>
<path d="M16.1597 16.1709C16.9863 19.909 14.6261 23.6094 10.888 24.436C7.14986 25.2627 3.4494 22.9025 2.62277 19.1644C1.79613 15.4263 4.15635 11.7258 7.89446 10.8992C11.6326 10.0725 15.333 12.4327 16.1597 16.1709Z" fill="#DADADA"/>
</svg>
