<svg width="280" height="200" viewBox="0 0 280 200" fill="none" xmlns="http://www.w3.org/2000/svg">
<path d="M248 200C265.673 200 280 185.673 280 168V32C280 14.3269 265.673 0 248 0H32C14.3269 0 0 14.3269 0 32V168C0 185.673 14.3269 200 32 200H248Z" fill="#C0C0C0"/>
<path d="M248 196C263.464 196 276 183.464 276 168V32C276 16.536 263.464 4 248 4H32C16.536 4 4 16.536 4 32V168C4 183.464 16.536 196 32 196H248Z" fill="#B8B8B8"/>
<path fill-rule="evenodd" clip-rule="evenodd" d="M44.6293 77.0578C34.0846 84.4542 28 93.1694 28 102.5C28 129.286 78.1441 151 140 151C201.856 151 252 129.286 252 102.5C252 93.1694 245.915 84.4542 235.371 77.0578C237.736 80.6983 239 84.5357 239 88.5C239 111.972 194.676 131 140 131C85.3238 131 41 111.972 41 88.5C41 84.5357 42.2643 80.6983 44.6293 77.0578Z" fill="#ADADAD"/>
<path d="M224 99C231.732 99 238 92.732 238 85V69C238 61.268 231.732 55 224 55H56C48.268 55 42 61.268 42 69V85C42 92.732 48.268 99 56 99H224Z" fill="#ADADAD"/>
<path d="M234 77C253.882 77 270 60.8822 270 41C270 21.1178 253.882 5 234 5H47C27.1178 5 11 21.1178 11 41C11 60.8822 27.1178 77 47 77H234Z" fill="#ADADAD"/>
<path d="M124.645 85.4307C124.645 86.1755 124.577 86.8949 124.442 87.5889C124.315 88.2829 124.128 88.9388 123.883 89.5566C123.621 90.1745 123.295 90.7458 122.905 91.2705C122.516 91.7868 122.068 92.2311 121.56 92.6035C121.069 92.9421 120.523 93.2087 119.922 93.4033C119.33 93.598 118.678 93.6953 117.967 93.6953C117.231 93.6953 116.554 93.5938 115.936 93.3906C115.326 93.179 114.78 92.8913 114.298 92.5273C113.807 92.1549 113.376 91.7064 113.003 91.1816C112.639 90.6569 112.334 90.0814 112.089 89.4551C111.852 88.8542 111.674 88.2152 111.556 87.5381C111.437 86.8525 111.378 86.1501 111.378 85.4307V82.9932C111.378 82.2399 111.442 81.512 111.569 80.8096C111.695 80.1071 111.886 79.4427 112.14 78.8164C112.385 78.2155 112.686 77.6654 113.041 77.166C113.405 76.6582 113.833 76.2181 114.323 75.8457C114.797 75.4818 115.335 75.2025 115.936 75.0078C116.545 74.8047 117.214 74.7031 117.942 74.7031C118.678 74.7031 119.355 74.8047 119.973 75.0078C120.591 75.2109 121.145 75.4945 121.636 75.8584C122.127 76.2223 122.554 76.6497 122.918 77.1406C123.282 77.6315 123.587 78.1689 123.832 78.7529C124.103 79.3792 124.306 80.0521 124.442 80.7715C124.577 81.4824 124.645 82.223 124.645 82.9932V85.4307ZM121.572 82.9678C121.564 82.5023 121.534 82.0452 121.484 81.5967C121.441 81.1481 121.365 80.7207 121.255 80.3145C121.128 79.849 120.959 79.4258 120.747 79.0449C120.544 78.6556 120.294 78.3255 119.998 78.0547C119.736 77.8177 119.435 77.6315 119.097 77.4961C118.758 77.3607 118.373 77.293 117.942 77.293C117.527 77.293 117.154 77.3607 116.824 77.4961C116.494 77.623 116.207 77.8008 115.961 78.0293C115.665 78.3086 115.415 78.6429 115.212 79.0322C115.009 79.4131 114.852 79.8405 114.742 80.3145C114.641 80.7207 114.565 81.1523 114.514 81.6094C114.472 82.0579 114.45 82.5107 114.45 82.9678V85.4307C114.45 85.8792 114.472 86.3236 114.514 86.7637C114.556 87.2038 114.628 87.627 114.73 88.0332C114.84 88.4902 114.988 88.9176 115.174 89.3154C115.369 89.7048 115.601 90.0348 115.872 90.3057C116.135 90.5596 116.435 90.7627 116.774 90.915C117.121 91.0589 117.518 91.1309 117.967 91.1309C118.399 91.1309 118.788 91.0589 119.135 90.915C119.49 90.7712 119.795 90.5765 120.049 90.3311C120.345 90.0518 120.591 89.7217 120.785 89.3408C120.988 88.9515 121.149 88.5241 121.268 88.0586C121.369 87.6523 121.441 87.2292 121.484 86.7891C121.534 86.3405 121.564 85.8877 121.572 85.4307V82.9678Z" fill="#8E8E8E"/>
<path d="M139.067 93.4414H136.008V77.4453H130.13V93.4414H127.07V74.957H139.067V93.4414Z" fill="#8E8E8E"/>
<path d="M155.419 77.4834H149.719V93.4414H146.685V77.4834H141.023V74.957H155.419V77.4834Z" fill="#8E8E8E"/>
<path d="M169.194 77.4453H160.574V93.4414H157.514V74.957H169.194V77.4453Z" fill="#8E8E8E"/>
<path d="M58.5387 120.446C58.5387 119.448 58.6826 118.525 58.9703 117.679C59.2581 116.824 59.677 116.083 60.2272 115.457C60.7688 114.831 61.4332 114.34 62.2203 113.984C63.0074 113.629 63.9046 113.451 64.9117 113.451C65.9189 113.451 66.816 113.629 67.6031 113.984C68.3987 114.34 69.0716 114.831 69.6217 115.457C70.1634 116.083 70.5781 116.824 70.8658 117.679C71.1536 118.525 71.2975 119.448 71.2975 120.446V120.713C71.2975 121.72 71.1536 122.647 70.8658 123.493C70.5781 124.34 70.1634 125.076 69.6217 125.702C69.08 126.328 68.4114 126.819 67.6158 127.175C66.8287 127.53 65.9358 127.708 64.9371 127.708C63.93 127.708 63.0286 127.53 62.233 127.175C61.4375 126.819 60.7688 126.328 60.2272 125.702C59.677 125.076 59.2581 124.34 58.9703 123.493C58.6826 122.647 58.5387 121.72 58.5387 120.713V120.446ZM61.5729 120.713C61.5729 121.331 61.6364 121.915 61.7633 122.465C61.8987 123.015 62.1061 123.497 62.3854 123.912C62.6562 124.327 63.0032 124.657 63.4264 124.902C63.8496 125.139 64.3531 125.258 64.9371 125.258C65.5042 125.258 65.9993 125.139 66.4225 124.902C66.8457 124.657 67.1927 124.327 67.4635 123.912C67.7343 123.497 67.9332 123.015 68.0602 122.465C68.1956 121.915 68.2633 121.331 68.2633 120.713V120.446C68.2633 119.845 68.1956 119.27 68.0602 118.72C67.9248 118.17 67.7259 117.687 67.4635 117.272C67.1842 116.858 66.833 116.528 66.4098 116.282C65.9951 116.037 65.4957 115.914 64.9117 115.914C64.3362 115.914 63.8369 116.037 63.4137 116.282C62.999 116.528 62.6562 116.858 62.3854 117.272C62.1061 117.687 61.8987 118.17 61.7633 118.72C61.6364 119.27 61.5729 119.845 61.5729 120.446V120.713Z" fill="#8E8E8E"/>
<path d="M87.1925 116.143H81.8224V127.441H78.7755V116.143H73.4689V113.705H87.1925V116.143Z" fill="#8E8E8E"/>
<path d="M95.2673 125.258C95.6481 125.258 96.012 125.203 96.359 125.093C96.7145 124.974 97.0277 124.809 97.2985 124.598C97.5609 124.386 97.7682 124.136 97.9206 123.849C98.0814 123.561 98.1618 123.243 98.1618 122.896H101.018C101.027 123.565 100.874 124.196 100.561 124.788C100.257 125.372 99.8418 125.876 99.3171 126.299C98.7839 126.739 98.1702 127.086 97.4762 127.34C96.7907 127.585 96.0671 127.708 95.3053 127.708C94.2474 127.708 93.3206 127.526 92.5251 127.162C91.738 126.79 91.082 126.29 90.5573 125.664C90.0241 125.038 89.6221 124.31 89.3512 123.48C89.0804 122.643 88.945 121.75 88.945 120.802V120.357C88.945 119.418 89.0762 118.529 89.3385 117.691C89.6094 116.854 90.0114 116.121 90.5446 115.495C91.0778 114.869 91.738 114.374 92.5251 114.01C93.3206 113.637 94.2432 113.451 95.2926 113.451C96.1221 113.451 96.888 113.578 97.5905 113.832C98.3014 114.086 98.9108 114.441 99.4186 114.898C99.9264 115.355 100.32 115.901 100.599 116.536C100.887 117.171 101.027 117.869 101.018 118.631H98.1618C98.1618 118.258 98.0898 117.907 97.946 117.577C97.8105 117.247 97.6159 116.959 97.362 116.714C97.0996 116.468 96.7865 116.274 96.4225 116.13C96.0671 115.986 95.682 115.914 95.2673 115.914C94.6325 115.914 94.1035 116.045 93.6803 116.308C93.2656 116.562 92.9355 116.896 92.6901 117.311C92.4277 117.725 92.2415 118.199 92.1315 118.732C92.0299 119.266 91.9792 119.807 91.9792 120.357V120.802C91.9792 121.36 92.0299 121.91 92.1315 122.452C92.2415 122.985 92.4235 123.455 92.6774 123.861C92.9228 124.285 93.2572 124.623 93.6803 124.877C94.1035 125.131 94.6325 125.258 95.2673 125.258Z" fill="#8E8E8E"/>
<path d="M106.11 132.989C105.813 132.989 105.53 132.964 105.259 132.913C104.997 132.871 104.743 132.82 104.497 132.761L104.916 130.387C105.085 130.395 105.276 130.404 105.487 130.412C105.708 130.429 105.885 130.438 106.021 130.438C106.317 130.438 106.584 130.349 106.82 130.171C107.057 130.002 107.265 129.807 107.443 129.587C107.612 129.367 107.747 129.172 107.849 129.003C107.959 128.834 108.06 128.656 108.154 128.47L109.017 126.832L103.164 113.705H106.503L109.918 122.097L110.388 123.607L110.959 122.135L114.273 113.705H117.637L110.667 129.523C110.506 129.879 110.303 130.256 110.058 130.653C109.821 131.06 109.52 131.432 109.156 131.771C108.793 132.118 108.361 132.405 107.862 132.634C107.362 132.871 106.778 132.989 106.11 132.989Z" fill="#8E8E8E"/>
<path d="M132.478 116.143H127.108V127.441H124.061V116.143H118.755V113.705H132.478V116.143Z" fill="#8E8E8E"/>
<path d="M140.553 125.258C140.934 125.258 141.298 125.203 141.645 125.093C142 124.974 142.313 124.809 142.584 124.598C142.847 124.386 143.054 124.136 143.206 123.849C143.367 123.561 143.447 123.243 143.447 122.896H146.304C146.312 123.565 146.16 124.196 145.847 124.788C145.542 125.372 145.127 125.876 144.603 126.299C144.07 126.739 143.456 127.086 142.762 127.34C142.076 127.585 141.353 127.708 140.591 127.708C139.533 127.708 138.606 127.526 137.811 127.162C137.024 126.79 136.368 126.29 135.843 125.664C135.31 125.038 134.908 124.31 134.637 123.48C134.366 122.643 134.231 121.75 134.231 120.802V120.357C134.231 119.418 134.362 118.529 134.624 117.691C134.895 116.854 135.297 116.121 135.83 115.495C136.363 114.869 137.024 114.374 137.811 114.01C138.606 113.637 139.529 113.451 140.578 113.451C141.408 113.451 142.174 113.578 142.876 113.832C143.587 114.086 144.197 114.441 144.704 114.898C145.212 115.355 145.606 115.901 145.885 116.536C146.173 117.171 146.312 117.869 146.304 118.631H143.447C143.447 118.258 143.376 117.907 143.232 117.577C143.096 117.247 142.902 116.959 142.648 116.714C142.385 116.468 142.072 116.274 141.708 116.13C141.353 115.986 140.968 115.914 140.553 115.914C139.918 115.914 139.389 116.045 138.966 116.308C138.551 116.562 138.221 116.896 137.976 117.311C137.713 117.725 137.527 118.199 137.417 118.732C137.316 119.266 137.265 119.807 137.265 120.357V120.802C137.265 121.36 137.316 121.91 137.417 122.452C137.527 122.985 137.709 123.455 137.963 123.861C138.209 124.285 138.543 124.623 138.966 124.877C139.389 125.131 139.918 125.258 140.553 125.258Z" fill="#8E8E8E"/>
<path d="M162.669 116.143H157.299V127.441H154.252V116.143H148.945V113.705H162.669V116.143Z" fill="#8E8E8E"/>
<path d="M164.688 127.441V113.705H170.261C171.133 113.705 171.92 113.785 172.622 113.946C173.333 114.099 173.938 114.327 174.438 114.632C174.937 114.945 175.318 115.343 175.58 115.825C175.851 116.299 175.987 116.862 175.987 117.514C175.987 117.895 175.915 118.254 175.771 118.593C175.627 118.931 175.415 119.236 175.136 119.507C174.95 119.685 174.73 119.85 174.476 120.002C174.222 120.146 173.943 120.273 173.638 120.383L173.765 120.408C174.222 120.518 174.62 120.675 174.958 120.878C175.305 121.073 175.601 121.301 175.847 121.563C176.092 121.843 176.274 122.147 176.393 122.478C176.52 122.808 176.583 123.159 176.583 123.531C176.583 124.183 176.456 124.754 176.202 125.245C175.957 125.728 175.601 126.13 175.136 126.451C174.671 126.781 174.099 127.031 173.422 127.2C172.754 127.361 171.992 127.441 171.137 127.441H164.688ZM167.722 121.589V125.017H171.137C171.56 125.017 171.924 124.979 172.229 124.902C172.542 124.818 172.796 124.703 172.99 124.56C173.177 124.416 173.316 124.238 173.409 124.026C173.503 123.815 173.549 123.574 173.549 123.303C173.549 123.04 173.503 122.808 173.409 122.604C173.316 122.393 173.177 122.215 172.99 122.071C172.796 121.919 172.542 121.8 172.229 121.716C171.924 121.631 171.56 121.589 171.137 121.589H167.722ZM167.722 119.405H170.375C170.849 119.405 171.26 119.367 171.607 119.291C171.954 119.206 172.233 119.079 172.445 118.91C172.614 118.783 172.741 118.631 172.825 118.453C172.91 118.275 172.952 118.068 172.952 117.831C172.952 117.552 172.897 117.311 172.787 117.107C172.686 116.896 172.525 116.718 172.305 116.574C172.093 116.43 171.814 116.325 171.467 116.257C171.12 116.181 170.718 116.143 170.261 116.143H167.722V119.405Z" fill="#8E8E8E"/>
<path d="M181.586 132.989C181.289 132.989 181.006 132.964 180.735 132.913C180.473 132.871 180.219 132.82 179.973 132.761L180.392 130.387C180.562 130.395 180.752 130.404 180.964 130.412C181.184 130.429 181.361 130.438 181.497 130.438C181.793 130.438 182.06 130.349 182.297 130.171C182.534 130.002 182.741 129.807 182.919 129.587C183.088 129.367 183.223 129.172 183.325 129.003C183.435 128.834 183.537 128.656 183.63 128.47L184.493 126.832L178.64 113.705H181.979L185.394 122.097L185.864 123.607L186.435 122.135L189.749 113.705H193.113L186.143 129.523C185.983 129.879 185.779 130.256 185.534 130.653C185.297 131.06 184.997 131.432 184.633 131.771C184.269 132.118 183.837 132.405 183.338 132.634C182.838 132.871 182.254 132.989 181.586 132.989Z" fill="#8E8E8E"/>
<path d="M201.366 127.695C200.35 127.695 199.419 127.526 198.573 127.188C197.735 126.849 197.015 126.379 196.414 125.778C195.813 125.186 195.348 124.488 195.018 123.684C194.696 122.871 194.535 121.995 194.535 121.056V120.535C194.535 119.46 194.705 118.487 195.043 117.615C195.382 116.743 195.847 115.999 196.44 115.381C197.032 114.763 197.718 114.289 198.496 113.959C199.284 113.62 200.121 113.451 201.01 113.451C202 113.451 202.876 113.62 203.638 113.959C204.4 114.289 205.039 114.75 205.555 115.343C206.071 115.944 206.461 116.659 206.723 117.488C206.985 118.318 207.117 119.223 207.117 120.205V121.513H197.595V121.576C197.688 122.177 197.832 122.681 198.027 123.087C198.221 123.493 198.488 123.857 198.826 124.179C199.165 124.517 199.563 124.78 200.02 124.966C200.485 125.152 200.993 125.245 201.543 125.245C202.297 125.245 202.999 125.101 203.651 124.813C204.302 124.517 204.84 124.098 205.263 123.557L206.888 125.131C206.431 125.791 205.728 126.383 204.781 126.908C203.841 127.433 202.703 127.695 201.366 127.695ZM200.997 115.914C200.566 115.914 200.164 115.994 199.791 116.155C199.427 116.308 199.102 116.528 198.814 116.815C198.526 117.112 198.285 117.467 198.09 117.882C197.895 118.297 197.752 118.766 197.659 119.291H204.12V119.088C204.12 118.69 204.048 118.297 203.905 117.907C203.761 117.509 203.558 117.162 203.295 116.866C203.041 116.578 202.72 116.35 202.33 116.181C201.95 116.003 201.505 115.914 200.997 115.914Z" fill="#8E8E8E"/>
<path d="M223.05 116.143H217.68V127.441H214.633V116.143H209.326V113.705H223.05V116.143Z" fill="#8E8E8E"/>
</svg>
